<svg width="19" height="17" viewBox="0 0 19 17" fill="none" xmlns="http://www.w3.org/2000/svg">
<path d="M7.91897 0.329386C7.50247 0.520159 6.98186 0.901705 6.78848 1.16585C6.16374 1.98764 0.317946 12.0839 0.124574 12.6709C-0.247296 13.8009 0.243572 15.4004 1.19556 16.1929C1.89467 16.7799 2.51942 17 3.4714 17C5.25638 17 5.80675 16.5011 7.78509 13.1112C8.66271 11.6143 9.4362 10.3963 9.4957 10.3963C9.5552 10.3963 10.3287 11.6143 11.2063 13.1112C13.1846 16.5011 13.735 17 15.52 17C17.3942 17 18.7776 15.738 18.9709 13.8449C19.0453 13.2286 18.9858 12.9204 18.6883 12.2894C18.2421 11.3355 12.7235 1.85557 12.2327 1.20988C11.3699 0.0505638 9.39157 -0.345655 7.91897 0.329386ZM10.4626 1.40065C11.0873 1.69415 11.3997 2.13439 13.7648 6.14062C17.8256 13.0231 17.7512 12.891 17.7363 13.6541C17.7066 15.6499 15.2374 16.5598 13.8689 15.0629C13.6904 14.8868 12.1583 12.3481 10.4626 9.44246C7.16035 3.80732 6.99673 3.4111 7.47272 2.50126C8.11234 1.26858 9.27257 0.843006 10.4626 1.40065ZM7.53222 6.83034C8.20159 7.97498 8.75196 8.94351 8.75196 8.97287C8.75196 9.04624 6.96698 12.1573 6.86286 12.3041C6.81823 12.3481 6.72898 12.26 6.63974 12.1133C6.02987 11.0127 4.82501 10.2349 3.67965 10.2056C3.27803 10.1909 2.95079 10.1469 2.95079 10.1028C2.95079 9.89738 6.16374 4.55574 6.23812 4.64379C6.28274 4.70249 6.86286 5.6857 7.53222 6.83034ZM4.61676 11.673C5.62825 12.2747 6.02987 13.8889 5.39025 14.7694C4.33414 16.1635 2.60867 16.1635 1.5823 14.7841C0.868314 13.8449 1.28481 12.2454 2.35579 11.6877C3.01028 11.3502 4.03665 11.3502 4.61676 11.673Z" fill="#ADB5BD"/>
</svg>
