<svg width="24" height="16" viewBox="0 0 24 16" fill="none" xmlns="http://www.w3.org/2000/svg">
<path d="M6.21409 1.14856C5.99895 1.34665 5.99895 14.6533 6.21409 14.8514C6.42924 15.0495 17.5914 15.0495 17.8065 14.8514C18.0217 14.6533 18.0217 1.34665 17.8065 1.14856C17.5914 0.950479 6.42924 0.950479 6.21409 1.14856ZM17.0725 8V14.1756H12.0103H6.94811V8V1.82439H12.0103H17.0725V8Z" fill="#ADB5BD" stroke="#ADB5BD" stroke-width="0.3"/>
<path d="M1.07593 1.99911C1.03797 2.10397 1 4.83057 1 8.0582C1 14.2921 1 14.2571 1.59481 14.1522C1.80995 14.1173 1.82261 13.791 1.82261 7.99994V1.88258L1.49356 1.84763C1.27842 1.82432 1.12656 1.88258 1.07593 1.99911Z" fill="#ADB5BD" stroke="#ADB5BD" stroke-width="0.3"/>
<path d="M2.86032 1.90573C2.8097 1.94069 2.77173 4.70223 2.77173 8.02308C2.77173 13.4646 2.79704 14.0705 2.97422 14.1404C3.22733 14.222 5.13831 13.383 5.23955 13.1384C5.27752 13.0451 5.2269 12.8937 5.113 12.7888C4.94848 12.6257 4.87254 12.6373 4.35367 12.8704C4.03728 13.0102 3.72089 13.1267 3.65761 13.1267C3.58168 13.1267 3.53106 11.2507 3.53106 7.99978C3.53106 4.74884 3.58168 2.87285 3.65761 2.87285C3.72089 2.87285 4.03728 2.98938 4.35367 3.1292C4.87254 3.36224 4.94848 3.37389 5.113 3.21077C5.42938 2.91946 5.2269 2.72138 4.22711 2.25529C3.27795 1.82417 3.01218 1.75425 2.86032 1.90573Z" fill="#ADB5BD" stroke="#ADB5BD" stroke-width="0.3"/>
<path d="M19.7681 2.25529C18.781 2.72138 18.5911 2.93112 18.9075 3.21077C19.0721 3.37389 19.148 3.36224 19.6669 3.1292C19.9833 2.98938 20.2996 2.87285 20.3629 2.87285C20.4388 2.87285 20.4895 4.74884 20.4895 7.99978C20.4895 11.2507 20.4388 13.1267 20.3629 13.1267C20.2996 13.1267 19.9833 13.0102 19.6669 12.8704C19.148 12.6373 19.0721 12.6257 18.9075 12.7888C18.7936 12.8937 18.743 13.0451 18.781 13.1384C18.8822 13.383 20.7932 14.222 21.0463 14.1404C21.2361 14.0705 21.2488 13.4879 21.2235 7.97647C21.1855 0.938606 21.3374 1.53286 19.7681 2.25529Z" fill="#ADB5BD" stroke="#ADB5BD" stroke-width="0.3"/>
<path d="M22.2234 1.90587C22.1727 1.94083 22.1348 4.70238 22.1348 8.02323C22.1348 13.5114 22.1601 14.0707 22.3373 14.1406C22.4512 14.1755 22.641 14.1639 22.7549 14.094C22.9321 13.9891 22.9574 13.3599 22.9953 8.16305C23.008 4.97038 22.9953 2.23213 22.9574 2.08065C22.8941 1.83596 22.4258 1.71944 22.2234 1.90587Z" fill="#ADB5BD" stroke="#ADB5BD" stroke-width="0.3"/>
</svg>
