<svg width="19" height="19" viewBox="0 0 19 19" fill="none" xmlns="http://www.w3.org/2000/svg">
<path d="M1 4.1875C1 3.19737 1 2.70231 1.16176 2.3118C1.37743 1.79111 1.79111 1.37743 2.3118 1.16176C2.70231 1 3.19737 1 4.1875 1C5.17763 1 5.67269 1 6.0632 1.16176C6.58389 1.37743 6.99757 1.79111 7.21324 2.3118C7.375 2.70231 7.375 3.19737 7.375 4.1875C7.375 5.17763 7.375 5.67269 7.21324 6.0632C6.99757 6.58389 6.58389 6.99757 6.0632 7.21324C5.67269 7.375 5.17763 7.375 4.1875 7.375C3.19737 7.375 2.70231 7.375 2.3118 7.21324C1.79111 6.99757 1.37743 6.58389 1.16176 6.0632C1 5.67269 1 5.17763 1 4.1875Z" stroke="#ADB5BD" stroke-width="1.5"/>
<path d="M11.625 4.1875C11.625 3.19737 11.625 2.70231 11.7868 2.3118C12.0024 1.79111 12.4161 1.37743 12.9368 1.16176C13.3273 1 13.8224 1 14.8125 1C15.8026 1 16.2977 1 16.6882 1.16176C17.2089 1.37743 17.6226 1.79111 17.8382 2.3118C18 2.70231 18 3.19737 18 4.1875C18 5.17763 18 5.67269 17.8382 6.0632C17.6226 6.58389 17.2089 6.99757 16.6882 7.21324C16.2977 7.375 15.8026 7.375 14.8125 7.375C13.8224 7.375 13.3273 7.375 12.9368 7.21324C12.4161 6.99757 12.0024 6.58389 11.7868 6.0632C11.625 5.67269 11.625 5.17763 11.625 4.1875Z" stroke="#ADB5BD" stroke-width="1.5"/>
<path d="M1 14.8125C1 13.8224 1 13.3273 1.16176 12.9368C1.37743 12.4161 1.79111 12.0024 2.3118 11.7868C2.70231 11.625 3.19737 11.625 4.1875 11.625C5.17763 11.625 5.67269 11.625 6.0632 11.7868C6.58389 12.0024 6.99757 12.4161 7.21324 12.9368C7.375 13.3273 7.375 13.8224 7.375 14.8125C7.375 15.8026 7.375 16.2977 7.21324 16.6882C6.99757 17.2089 6.58389 17.6226 6.0632 17.8382C5.67269 18 5.17763 18 4.1875 18C3.19737 18 2.70231 18 2.3118 17.8382C1.79111 17.6226 1.37743 17.2089 1.16176 16.6882C1 16.2977 1 15.8026 1 14.8125Z" stroke="#ADB5BD" stroke-width="1.5"/>
<path d="M11.625 14.8125C11.625 13.8224 11.625 13.3273 11.7868 12.9368C12.0024 12.4161 12.4161 12.0024 12.9368 11.7868C13.3273 11.625 13.8224 11.625 14.8125 11.625C15.8026 11.625 16.2977 11.625 16.6882 11.7868C17.2089 12.0024 17.6226 12.4161 17.8382 12.9368C18 13.3273 18 13.8224 18 14.8125C18 15.8026 18 16.2977 17.8382 16.6882C17.6226 17.2089 17.2089 17.6226 16.6882 17.8382C16.2977 18 15.8026 18 14.8125 18C13.8224 18 13.3273 18 12.9368 17.8382C12.4161 17.6226 12.0024 17.2089 11.7868 16.6882C11.625 16.2977 11.625 15.8026 11.625 14.8125Z" stroke="#ADB5BD" stroke-width="1.5"/>
</svg>
