<svg width="1602" height="276" viewBox="0 0 1602 276" fill="none" xmlns="http://www.w3.org/2000/svg">
<g id="Graphic Side">
<g clip-path="url(#clip0_16_2916)">
<path d="M0 0H1602V260C1602 268.837 1594.84 276 1586 276H16C7.16347 276 0 268.837 0 260V0Z" fill="url(#paint0_linear_16_2916)"/>
<g id="Big Circles">
<g id="Ellipse 5" style="mix-blend-mode:multiply" opacity="0.75" filter="url(#filter0_i_16_2916)">
<ellipse cx="884" cy="823.307" rx="1056.31" ry="1078" transform="rotate(90 884 823.307)" fill="white"/>
</g>
<g id="Ellipse 4" style="mix-blend-mode:multiply" opacity="0.75" filter="url(#filter1_i_16_2916)">
<ellipse cx="641.164" cy="823.307" rx="817.689" ry="835.164" transform="rotate(90 641.164 823.307)" fill="white"/>
</g>
<g id="Ellipse 3" style="mix-blend-mode:multiply" opacity="0.75" filter="url(#filter2_i_16_2916)">
<ellipse cx="609.228" cy="901.642" rx="694.765" ry="709.226" transform="rotate(90 609.228 901.642)" fill="white"/>
</g>
</g>
<g id="Frame 35289">
<g id="Frame 35288">
<path id="TmMuse Dashboard" d="M48.5888 109.28H39.6288V104H64.0288V109.28H55.0688V132H48.5888V109.28ZM94.1666 110.16C96.8599 110.16 98.9932 110.96 100.567 112.56C102.167 114.133 102.967 116.507 102.967 119.68V132H96.7266V120.64C96.7266 118.933 96.3666 117.667 95.6466 116.84C94.9532 115.987 93.9532 115.56 92.6466 115.56C91.1799 115.56 90.0199 116.04 89.1666 117C88.3132 117.933 87.8866 119.333 87.8866 121.2V132H81.6466V120.64C81.6466 117.253 80.2866 115.56 77.5666 115.56C76.1266 115.56 74.9799 116.04 74.1266 117C73.2732 117.933 72.8466 119.333 72.8466 121.2V132H66.6066V110.48H72.5666V112.96C73.3666 112.053 74.3399 111.36 75.4866 110.88C76.6599 110.4 77.9399 110.16 79.3266 110.16C80.8466 110.16 82.2199 110.467 83.4466 111.08C84.6732 111.667 85.6599 112.533 86.4066 113.68C87.2866 112.56 88.3932 111.693 89.7266 111.08C91.0866 110.467 92.5666 110.16 94.1666 110.16ZM134.48 132L134.44 115.2L126.2 129.04H123.28L115.08 115.56V132H109V104H114.36L124.84 121.4L135.16 104H140.48L140.56 132H134.48ZM168.443 110.48V132H162.523V129.44C161.696 130.373 160.709 131.093 159.563 131.6C158.416 132.08 157.176 132.32 155.843 132.32C153.016 132.32 150.776 131.507 149.123 129.88C147.469 128.253 146.643 125.84 146.643 122.64V110.48H152.883V121.72C152.883 125.187 154.336 126.92 157.243 126.92C158.736 126.92 159.936 126.44 160.843 125.48C161.749 124.493 162.203 123.04 162.203 121.12V110.48H168.443ZM181.464 132.32C179.677 132.32 177.93 132.107 176.224 131.68C174.517 131.227 173.157 130.667 172.144 130L174.224 125.52C175.184 126.133 176.344 126.64 177.704 127.04C179.064 127.413 180.397 127.6 181.704 127.6C184.344 127.6 185.664 126.947 185.664 125.64C185.664 125.027 185.304 124.587 184.584 124.32C183.864 124.053 182.757 123.827 181.264 123.64C179.504 123.373 178.05 123.067 176.904 122.72C175.757 122.373 174.757 121.76 173.904 120.88C173.077 120 172.664 118.747 172.664 117.12C172.664 115.76 173.05 114.56 173.824 113.52C174.624 112.453 175.77 111.627 177.264 111.04C178.784 110.453 180.57 110.16 182.624 110.16C184.144 110.16 185.65 110.333 187.144 110.68C188.664 111 189.917 111.453 190.904 112.04L188.824 116.48C186.93 115.413 184.864 114.88 182.624 114.88C181.29 114.88 180.29 115.067 179.624 115.44C178.957 115.813 178.624 116.293 178.624 116.88C178.624 117.547 178.984 118.013 179.704 118.28C180.424 118.547 181.57 118.8 183.144 119.04C184.904 119.333 186.344 119.653 187.464 120C188.584 120.32 189.557 120.92 190.384 121.8C191.21 122.68 191.624 123.907 191.624 125.48C191.624 126.813 191.224 128 190.424 129.04C189.624 130.08 188.45 130.893 186.904 131.48C185.384 132.04 183.57 132.32 181.464 132.32ZM216.554 121.32C216.554 121.4 216.514 121.96 216.434 123H200.154C200.447 124.333 201.14 125.387 202.234 126.16C203.327 126.933 204.687 127.32 206.314 127.32C207.434 127.32 208.42 127.16 209.274 126.84C210.154 126.493 210.967 125.96 211.714 125.24L215.034 128.84C213.007 131.16 210.047 132.32 206.154 132.32C203.727 132.32 201.58 131.853 199.714 130.92C197.847 129.96 196.407 128.64 195.394 126.96C194.38 125.28 193.874 123.373 193.874 121.24C193.874 119.133 194.367 117.24 195.354 115.56C196.367 113.853 197.74 112.533 199.474 111.6C201.234 110.64 203.194 110.16 205.354 110.16C207.46 110.16 209.367 110.613 211.074 111.52C212.78 112.427 214.114 113.733 215.074 115.44C216.06 117.12 216.554 119.08 216.554 121.32ZM205.394 114.88C203.98 114.88 202.794 115.28 201.834 116.08C200.874 116.88 200.287 117.973 200.074 119.36H210.674C210.46 118 209.874 116.92 208.914 116.12C207.954 115.293 206.78 114.88 205.394 114.88ZM232.476 104H245.196C248.236 104 250.916 104.587 253.236 105.76C255.583 106.907 257.396 108.533 258.676 110.64C259.983 112.747 260.636 115.2 260.636 118C260.636 120.8 259.983 123.253 258.676 125.36C257.396 127.467 255.583 129.107 253.236 130.28C250.916 131.427 248.236 132 245.196 132H232.476V104ZM244.876 126.68C247.676 126.68 249.903 125.907 251.556 124.36C253.236 122.787 254.076 120.667 254.076 118C254.076 115.333 253.236 113.227 251.556 111.68C249.903 110.107 247.676 109.32 244.876 109.32H238.956V126.68H244.876ZM273.763 110.16C277.096 110.16 279.656 110.96 281.443 112.56C283.23 114.133 284.123 116.52 284.123 119.72V132H278.283V129.32C277.11 131.32 274.923 132.32 271.723 132.32C270.07 132.32 268.63 132.04 267.403 131.48C266.203 130.92 265.283 130.147 264.643 129.16C264.003 128.173 263.683 127.053 263.683 125.8C263.683 123.8 264.43 122.227 265.923 121.08C267.443 119.933 269.776 119.36 272.923 119.36H277.883C277.883 118 277.47 116.96 276.643 116.24C275.816 115.493 274.576 115.12 272.923 115.12C271.776 115.12 270.643 115.307 269.523 115.68C268.43 116.027 267.496 116.507 266.723 117.12L264.483 112.76C265.656 111.933 267.056 111.293 268.683 110.84C270.336 110.387 272.03 110.16 273.763 110.16ZM273.283 128.12C274.35 128.12 275.296 127.88 276.123 127.4C276.95 126.893 277.536 126.16 277.883 125.2V123H273.603C271.043 123 269.763 123.84 269.763 125.52C269.763 126.32 270.07 126.96 270.683 127.44C271.323 127.893 272.19 128.12 273.283 128.12ZM297.011 132.32C295.224 132.32 293.477 132.107 291.771 131.68C290.064 131.227 288.704 130.667 287.691 130L289.771 125.52C290.731 126.133 291.891 126.64 293.251 127.04C294.611 127.413 295.944 127.6 297.251 127.6C299.891 127.6 301.211 126.947 301.211 125.64C301.211 125.027 300.851 124.587 300.131 124.32C299.411 124.053 298.304 123.827 296.811 123.64C295.051 123.373 293.597 123.067 292.451 122.72C291.304 122.373 290.304 121.76 289.451 120.88C288.624 120 288.211 118.747 288.211 117.12C288.211 115.76 288.597 114.56 289.371 113.52C290.171 112.453 291.317 111.627 292.811 111.04C294.331 110.453 296.117 110.16 298.171 110.16C299.691 110.16 301.197 110.333 302.691 110.68C304.211 111 305.464 111.453 306.451 112.04L304.371 116.48C302.477 115.413 300.411 114.88 298.171 114.88C296.837 114.88 295.837 115.067 295.171 115.44C294.504 115.813 294.171 116.293 294.171 116.88C294.171 117.547 294.531 118.013 295.251 118.28C295.971 118.547 297.117 118.8 298.691 119.04C300.451 119.333 301.891 119.653 303.011 120C304.131 120.32 305.104 120.92 305.931 121.8C306.757 122.68 307.171 123.907 307.171 125.48C307.171 126.813 306.771 128 305.971 129.04C305.171 130.08 303.997 130.893 302.451 131.48C300.931 132.04 299.117 132.32 297.011 132.32ZM324.101 110.16C326.767 110.16 328.914 110.96 330.541 112.56C332.194 114.16 333.021 116.533 333.021 119.68V132H326.781V120.64C326.781 118.933 326.407 117.667 325.661 116.84C324.914 115.987 323.834 115.56 322.421 115.56C320.847 115.56 319.594 116.053 318.661 117.04C317.727 118 317.261 119.44 317.261 121.36V132H311.021V102.32H317.261V112.72C318.087 111.893 319.087 111.267 320.261 110.84C321.434 110.387 322.714 110.16 324.101 110.16ZM351.397 110.16C353.397 110.16 355.21 110.627 356.837 111.56C358.49 112.467 359.784 113.76 360.717 115.44C361.65 117.093 362.117 119.027 362.117 121.24C362.117 123.453 361.65 125.4 360.717 127.08C359.784 128.733 358.49 130.027 356.837 130.96C355.21 131.867 353.397 132.32 351.397 132.32C348.437 132.32 346.184 131.387 344.637 129.52V132H338.677V102.32H344.917V112.76C346.49 111.027 348.65 110.16 351.397 110.16ZM350.317 127.2C351.917 127.2 353.224 126.667 354.237 125.6C355.277 124.507 355.797 123.053 355.797 121.24C355.797 119.427 355.277 117.987 354.237 116.92C353.224 115.827 351.917 115.28 350.317 115.28C348.717 115.28 347.397 115.827 346.357 116.92C345.344 117.987 344.837 119.427 344.837 121.24C344.837 123.053 345.344 124.507 346.357 125.6C347.397 126.667 348.717 127.2 350.317 127.2ZM376.534 132.32C374.267 132.32 372.227 131.853 370.414 130.92C368.627 129.96 367.227 128.64 366.214 126.96C365.201 125.28 364.694 123.373 364.694 121.24C364.694 119.107 365.201 117.2 366.214 115.52C367.227 113.84 368.627 112.533 370.414 111.6C372.227 110.64 374.267 110.16 376.534 110.16C378.801 110.16 380.827 110.64 382.614 111.6C384.401 112.533 385.801 113.84 386.814 115.52C387.827 117.2 388.334 119.107 388.334 121.24C388.334 123.373 387.827 125.28 386.814 126.96C385.801 128.64 384.401 129.96 382.614 130.92C380.827 131.853 378.801 132.32 376.534 132.32ZM376.534 127.2C378.134 127.2 379.441 126.667 380.454 125.6C381.494 124.507 382.014 123.053 382.014 121.24C382.014 119.427 381.494 117.987 380.454 116.92C379.441 115.827 378.134 115.28 376.534 115.28C374.934 115.28 373.614 115.827 372.574 116.92C371.534 117.987 371.014 119.427 371.014 121.24C371.014 123.053 371.534 124.507 372.574 125.6C373.614 126.667 374.934 127.2 376.534 127.2ZM400.833 110.16C404.167 110.16 406.727 110.96 408.513 112.56C410.3 114.133 411.193 116.52 411.193 119.72V132H405.353V129.32C404.18 131.32 401.993 132.32 398.793 132.32C397.14 132.32 395.7 132.04 394.473 131.48C393.273 130.92 392.353 130.147 391.713 129.16C391.073 128.173 390.753 127.053 390.753 125.8C390.753 123.8 391.5 122.227 392.993 121.08C394.513 119.933 396.847 119.36 399.993 119.36H404.953C404.953 118 404.54 116.96 403.713 116.24C402.887 115.493 401.647 115.12 399.993 115.12C398.847 115.12 397.713 115.307 396.593 115.68C395.5 116.027 394.567 116.507 393.793 117.12L391.553 112.76C392.727 111.933 394.127 111.293 395.753 110.84C397.407 110.387 399.1 110.16 400.833 110.16ZM400.353 128.12C401.42 128.12 402.367 127.88 403.193 127.4C404.02 126.893 404.607 126.16 404.953 125.2V123H400.673C398.113 123 396.833 123.84 396.833 125.52C396.833 126.32 397.14 126.96 397.753 127.44C398.393 127.893 399.26 128.12 400.353 128.12ZM422.801 113.32C423.548 112.28 424.548 111.493 425.801 110.96C427.081 110.427 428.548 110.16 430.201 110.16V115.92C429.508 115.867 429.041 115.84 428.801 115.84C427.014 115.84 425.614 116.347 424.601 117.36C423.588 118.347 423.081 119.84 423.081 121.84V132H416.841V110.48H422.801V113.32ZM455.636 102.32V132H449.676V129.52C448.129 131.387 445.889 132.32 442.956 132.32C440.929 132.32 439.089 131.867 437.436 130.96C435.809 130.053 434.529 128.76 433.596 127.08C432.663 125.4 432.196 123.453 432.196 121.24C432.196 119.027 432.663 117.08 433.596 115.4C434.529 113.72 435.809 112.427 437.436 111.52C439.089 110.613 440.929 110.16 442.956 110.16C445.703 110.16 447.849 111.027 449.396 112.76V102.32H455.636ZM444.036 127.2C445.609 127.2 446.916 126.667 447.956 125.6C448.996 124.507 449.516 123.053 449.516 121.24C449.516 119.427 448.996 117.987 447.956 116.92C446.916 115.827 445.609 115.28 444.036 115.28C442.436 115.28 441.116 115.827 440.076 116.92C439.036 117.987 438.516 119.427 438.516 121.24C438.516 123.053 439.036 124.507 440.076 125.6C441.116 126.667 442.436 127.2 444.036 127.2Z" fill="white"/>
<path id="TmMuse - is a portal for provision of information services in the field of culture, entertainment and leisure." d="M44.8908 158.901H39.3708V156.9H52.6878V158.901H47.1678V173H44.8908V158.901ZM69.8278 160.695C71.3612 160.695 72.5725 161.14 73.4618 162.029C74.3665 162.918 74.8188 164.237 74.8188 165.985V173H72.6108V166.238C72.6108 165.057 72.3348 164.168 71.7828 163.57C71.2462 162.972 70.4718 162.673 69.4598 162.673C68.3405 162.673 67.4512 163.026 66.7918 163.731C66.1325 164.421 65.8028 165.418 65.8028 166.721V173H63.5948V166.238C63.5948 165.057 63.3188 164.168 62.7668 163.57C62.2302 162.972 61.4558 162.673 60.4438 162.673C59.3245 162.673 58.4352 163.026 57.7758 163.731C57.1165 164.421 56.7868 165.418 56.7868 166.721V173H54.5788V160.81H56.6948V162.627C57.1395 161.998 57.7222 161.523 58.4428 161.201C59.1635 160.864 59.9838 160.695 60.9038 160.695C61.8545 160.695 62.6978 160.887 63.4338 161.27C64.1698 161.653 64.7372 162.213 65.1358 162.949C65.5958 162.244 66.2322 161.692 67.0448 161.293C67.8728 160.894 68.8005 160.695 69.8278 160.695ZM94.1306 173L94.1076 161.27L88.2886 171.045H87.2306L81.4116 161.339V173H79.2036V156.9H81.0896L87.8056 168.216L94.4296 156.9H96.3156L96.3386 173H94.1306ZM112.21 160.81V173H110.117V171.16C109.673 171.789 109.082 172.279 108.346 172.632C107.626 172.969 106.836 173.138 105.977 173.138C104.352 173.138 103.072 172.693 102.136 171.804C101.201 170.899 100.733 169.573 100.733 167.825V160.81H102.941V167.572C102.941 168.753 103.225 169.65 103.792 170.263C104.36 170.861 105.172 171.16 106.23 171.16C107.396 171.16 108.316 170.807 108.99 170.102C109.665 169.397 110.002 168.4 110.002 167.112V160.81H112.21ZM119.91 173.138C118.913 173.138 117.955 173.008 117.035 172.747C116.115 172.471 115.394 172.126 114.873 171.712L115.793 169.964C116.329 170.347 116.981 170.654 117.748 170.884C118.514 171.114 119.289 171.229 120.071 171.229C122.003 171.229 122.969 170.677 122.969 169.573C122.969 169.205 122.838 168.914 122.578 168.699C122.317 168.484 121.987 168.331 121.589 168.239C121.205 168.132 120.653 168.017 119.933 167.894C118.951 167.741 118.146 167.564 117.518 167.365C116.904 167.166 116.375 166.828 115.931 166.353C115.486 165.878 115.264 165.211 115.264 164.352C115.264 163.248 115.724 162.366 116.644 161.707C117.564 161.032 118.798 160.695 120.347 160.695C121.159 160.695 121.972 160.795 122.785 160.994C123.597 161.193 124.264 161.462 124.786 161.799L123.843 163.547C122.846 162.903 121.673 162.581 120.324 162.581C119.388 162.581 118.675 162.734 118.185 163.041C117.694 163.348 117.449 163.754 117.449 164.26C117.449 164.659 117.587 164.973 117.863 165.203C118.139 165.433 118.476 165.602 118.875 165.709C119.289 165.816 119.864 165.939 120.6 166.077C121.581 166.246 122.371 166.43 122.969 166.629C123.582 166.813 124.103 167.135 124.533 167.595C124.962 168.055 125.177 168.699 125.177 169.527C125.177 170.631 124.701 171.513 123.751 172.172C122.815 172.816 121.535 173.138 119.91 173.138ZM138.953 166.974C138.953 167.143 138.938 167.365 138.907 167.641H129.017C129.155 168.714 129.623 169.581 130.42 170.24C131.233 170.884 132.237 171.206 133.433 171.206C134.89 171.206 136.063 170.715 136.952 169.734L138.171 171.16C137.619 171.804 136.929 172.295 136.101 172.632C135.289 172.969 134.376 173.138 133.364 173.138C132.076 173.138 130.934 172.877 129.937 172.356C128.941 171.819 128.166 171.076 127.614 170.125C127.078 169.174 126.809 168.101 126.809 166.905C126.809 165.724 127.07 164.659 127.591 163.708C128.128 162.757 128.856 162.021 129.776 161.5C130.712 160.963 131.762 160.695 132.927 160.695C134.093 160.695 135.128 160.963 136.032 161.5C136.952 162.021 137.665 162.757 138.171 163.708C138.693 164.659 138.953 165.747 138.953 166.974ZM132.927 162.558C131.869 162.558 130.98 162.88 130.259 163.524C129.554 164.168 129.14 165.011 129.017 166.054H136.837C136.715 165.027 136.293 164.191 135.572 163.547C134.867 162.888 133.985 162.558 132.927 162.558ZM147.414 165.732H153.601V167.641H147.414V165.732ZM163.177 160.81H165.385V173H163.177V160.81ZM164.281 158.464C163.852 158.464 163.492 158.326 163.2 158.05C162.924 157.774 162.786 157.437 162.786 157.038C162.786 156.639 162.924 156.302 163.2 156.026C163.492 155.735 163.852 155.589 164.281 155.589C164.711 155.589 165.063 155.727 165.339 156.003C165.631 156.264 165.776 156.593 165.776 156.992C165.776 157.406 165.631 157.759 165.339 158.05C165.063 158.326 164.711 158.464 164.281 158.464ZM173.097 173.138C172.101 173.138 171.142 173.008 170.222 172.747C169.302 172.471 168.582 172.126 168.06 171.712L168.98 169.964C169.517 170.347 170.169 170.654 170.935 170.884C171.702 171.114 172.476 171.229 173.258 171.229C175.19 171.229 176.156 170.677 176.156 169.573C176.156 169.205 176.026 168.914 175.765 168.699C175.505 168.484 175.175 168.331 174.776 168.239C174.393 168.132 173.841 168.017 173.12 167.894C172.139 167.741 171.334 167.564 170.705 167.365C170.092 167.166 169.563 166.828 169.118 166.353C168.674 165.878 168.451 165.211 168.451 164.352C168.451 163.248 168.911 162.366 169.831 161.707C170.751 161.032 171.986 160.695 173.534 160.695C174.347 160.695 175.16 160.795 175.972 160.994C176.785 161.193 177.452 161.462 177.973 161.799L177.03 163.547C176.034 162.903 174.861 162.581 173.511 162.581C172.576 162.581 171.863 162.734 171.372 163.041C170.882 163.348 170.636 163.754 170.636 164.26C170.636 164.659 170.774 164.973 171.05 165.203C171.326 165.433 171.664 165.602 172.062 165.709C172.476 165.816 173.051 165.939 173.787 166.077C174.769 166.246 175.558 166.43 176.156 166.629C176.77 166.813 177.291 167.135 177.72 167.595C178.15 168.055 178.364 168.699 178.364 169.527C178.364 170.631 177.889 171.513 176.938 172.172C176.003 172.816 174.723 173.138 173.097 173.138ZM191.74 160.695C193.426 160.695 194.714 161.109 195.604 161.937C196.508 162.765 196.961 163.999 196.961 165.64V173H194.868V171.39C194.5 171.957 193.971 172.394 193.281 172.701C192.606 172.992 191.801 173.138 190.866 173.138C189.501 173.138 188.405 172.808 187.577 172.149C186.764 171.49 186.358 170.623 186.358 169.55C186.358 168.477 186.749 167.618 187.531 166.974C188.313 166.315 189.555 165.985 191.257 165.985H194.753V165.548C194.753 164.597 194.477 163.869 193.925 163.363C193.373 162.857 192.56 162.604 191.487 162.604C190.766 162.604 190.061 162.727 189.371 162.972C188.681 163.202 188.098 163.516 187.623 163.915L186.703 162.259C187.331 161.753 188.083 161.37 188.957 161.109C189.831 160.833 190.758 160.695 191.74 160.695ZM191.234 171.436C192.077 171.436 192.805 171.252 193.419 170.884C194.032 170.501 194.477 169.964 194.753 169.274V167.572H191.349C189.478 167.572 188.543 168.201 188.543 169.458C188.543 170.071 188.78 170.554 189.256 170.907C189.731 171.26 190.39 171.436 191.234 171.436ZM213.686 160.695C214.867 160.695 215.925 160.956 216.86 161.477C217.796 161.998 218.524 162.727 219.045 163.662C219.582 164.597 219.85 165.678 219.85 166.905C219.85 168.132 219.582 169.22 219.045 170.171C218.524 171.106 217.796 171.835 216.86 172.356C215.925 172.877 214.867 173.138 213.686 173.138C212.812 173.138 212.007 172.969 211.271 172.632C210.551 172.295 209.937 171.804 209.431 171.16V177.462H207.223V160.81H209.339V162.742C209.83 162.067 210.451 161.561 211.202 161.224C211.954 160.871 212.782 160.695 213.686 160.695ZM213.502 171.206C214.284 171.206 214.982 171.03 215.595 170.677C216.224 170.309 216.715 169.803 217.067 169.159C217.435 168.5 217.619 167.748 217.619 166.905C217.619 166.062 217.435 165.318 217.067 164.674C216.715 164.015 216.224 163.509 215.595 163.156C214.982 162.803 214.284 162.627 213.502 162.627C212.736 162.627 212.038 162.811 211.409 163.179C210.796 163.532 210.305 164.03 209.937 164.674C209.585 165.318 209.408 166.062 209.408 166.905C209.408 167.748 209.585 168.5 209.937 169.159C210.29 169.803 210.781 170.309 211.409 170.677C212.038 171.03 212.736 171.206 213.502 171.206ZM228.122 173.138C226.911 173.138 225.822 172.87 224.856 172.333C223.89 171.796 223.131 171.06 222.579 170.125C222.042 169.174 221.774 168.101 221.774 166.905C221.774 165.709 222.042 164.643 222.579 163.708C223.131 162.757 223.89 162.021 224.856 161.5C225.822 160.963 226.911 160.695 228.122 160.695C229.333 160.695 230.414 160.963 231.365 161.5C232.331 162.021 233.082 162.757 233.619 163.708C234.171 164.643 234.447 165.709 234.447 166.905C234.447 168.101 234.171 169.174 233.619 170.125C233.082 171.06 232.331 171.796 231.365 172.333C230.414 172.87 229.333 173.138 228.122 173.138ZM228.122 171.206C228.904 171.206 229.602 171.03 230.215 170.677C230.844 170.309 231.334 169.803 231.687 169.159C232.04 168.5 232.216 167.748 232.216 166.905C232.216 166.062 232.04 165.318 231.687 164.674C231.334 164.015 230.844 163.509 230.215 163.156C229.602 162.803 228.904 162.627 228.122 162.627C227.34 162.627 226.635 162.803 226.006 163.156C225.393 163.509 224.902 164.015 224.534 164.674C224.181 165.318 224.005 166.062 224.005 166.905C224.005 167.748 224.181 168.5 224.534 169.159C224.902 169.803 225.393 170.309 226.006 170.677C226.635 171.03 227.34 171.206 228.122 171.206ZM239.617 162.857C240 162.152 240.567 161.615 241.319 161.247C242.07 160.879 242.982 160.695 244.056 160.695V162.834C243.933 162.819 243.764 162.811 243.55 162.811C242.354 162.811 241.411 163.171 240.721 163.892C240.046 164.597 239.709 165.609 239.709 166.928V173H237.501V160.81H239.617V162.857ZM254.125 172.287C253.803 172.563 253.405 172.778 252.929 172.931C252.454 173.069 251.963 173.138 251.457 173.138C250.231 173.138 249.28 172.808 248.605 172.149C247.931 171.49 247.593 170.547 247.593 169.32V162.627H245.523V160.81H247.593V158.142H249.801V160.81H253.297V162.627H249.801V169.228C249.801 169.887 249.962 170.393 250.284 170.746C250.622 171.099 251.097 171.275 251.71 171.275C252.385 171.275 252.96 171.083 253.435 170.7L254.125 172.287ZM261.234 160.695C262.92 160.695 264.208 161.109 265.098 161.937C266.002 162.765 266.455 163.999 266.455 165.64V173H264.362V171.39C263.994 171.957 263.465 172.394 262.775 172.701C262.1 172.992 261.295 173.138 260.36 173.138C258.995 173.138 257.899 172.808 257.071 172.149C256.258 171.49 255.852 170.623 255.852 169.55C255.852 168.477 256.243 167.618 257.025 166.974C257.807 166.315 259.049 165.985 260.751 165.985H264.247V165.548C264.247 164.597 263.971 163.869 263.419 163.363C262.867 162.857 262.054 162.604 260.981 162.604C260.26 162.604 259.555 162.727 258.865 162.972C258.175 163.202 257.592 163.516 257.117 163.915L256.197 162.259C256.825 161.753 257.577 161.37 258.451 161.109C259.325 160.833 260.252 160.695 261.234 160.695ZM260.728 171.436C261.571 171.436 262.299 171.252 262.913 170.884C263.526 170.501 263.971 169.964 264.247 169.274V167.572H260.843C258.972 167.572 258.037 168.201 258.037 169.458C258.037 170.071 258.274 170.554 258.75 170.907C259.225 171.26 259.884 171.436 260.728 171.436ZM270.541 155.934H272.749V173H270.541V155.934ZM287.603 157.613C286.285 157.613 285.625 158.326 285.625 159.752V160.81H289.167V162.627H285.671V173H283.463V162.627H281.393V160.81H283.463V159.729C283.463 158.518 283.816 157.559 284.521 156.854C285.227 156.149 286.216 155.796 287.488 155.796C287.979 155.796 288.439 155.857 288.868 155.98C289.298 156.103 289.666 156.279 289.972 156.509L289.305 158.188C288.799 157.805 288.232 157.613 287.603 157.613ZM296.291 173.138C295.08 173.138 293.991 172.87 293.025 172.333C292.059 171.796 291.3 171.06 290.748 170.125C290.211 169.174 289.943 168.101 289.943 166.905C289.943 165.709 290.211 164.643 290.748 163.708C291.3 162.757 292.059 162.021 293.025 161.5C293.991 160.963 295.08 160.695 296.291 160.695C297.502 160.695 298.583 160.963 299.534 161.5C300.5 162.021 301.251 162.757 301.788 163.708C302.34 164.643 302.616 165.709 302.616 166.905C302.616 168.101 302.34 169.174 301.788 170.125C301.251 171.06 300.5 171.796 299.534 172.333C298.583 172.87 297.502 173.138 296.291 173.138ZM296.291 171.206C297.073 171.206 297.771 171.03 298.384 170.677C299.013 170.309 299.503 169.803 299.856 169.159C300.209 168.5 300.385 167.748 300.385 166.905C300.385 166.062 300.209 165.318 299.856 164.674C299.503 164.015 299.013 163.509 298.384 163.156C297.771 162.803 297.073 162.627 296.291 162.627C295.509 162.627 294.804 162.803 294.175 163.156C293.562 163.509 293.071 164.015 292.703 164.674C292.35 165.318 292.174 166.062 292.174 166.905C292.174 167.748 292.35 168.5 292.703 169.159C293.071 169.803 293.562 170.309 294.175 170.677C294.804 171.03 295.509 171.206 296.291 171.206ZM307.786 162.857C308.169 162.152 308.736 161.615 309.488 161.247C310.239 160.879 311.151 160.695 312.225 160.695V162.834C312.102 162.819 311.933 162.811 311.719 162.811C310.523 162.811 309.58 163.171 308.89 163.892C308.215 164.597 307.878 165.609 307.878 166.928V173H305.67V160.81H307.786V162.857ZM327.743 160.695C328.924 160.695 329.982 160.956 330.917 161.477C331.852 161.998 332.581 162.727 333.102 163.662C333.639 164.597 333.907 165.678 333.907 166.905C333.907 168.132 333.639 169.22 333.102 170.171C332.581 171.106 331.852 171.835 330.917 172.356C329.982 172.877 328.924 173.138 327.743 173.138C326.869 173.138 326.064 172.969 325.328 172.632C324.607 172.295 323.994 171.804 323.488 171.16V177.462H321.28V160.81H323.396V162.742C323.887 162.067 324.508 161.561 325.259 161.224C326.01 160.871 326.838 160.695 327.743 160.695ZM327.559 171.206C328.341 171.206 329.039 171.03 329.652 170.677C330.281 170.309 330.771 169.803 331.124 169.159C331.492 168.5 331.676 167.748 331.676 166.905C331.676 166.062 331.492 165.318 331.124 164.674C330.771 164.015 330.281 163.509 329.652 163.156C329.039 162.803 328.341 162.627 327.559 162.627C326.792 162.627 326.095 162.811 325.466 163.179C324.853 163.532 324.362 164.03 323.994 164.674C323.641 165.318 323.465 166.062 323.465 166.905C323.465 167.748 323.641 168.5 323.994 169.159C324.347 169.803 324.837 170.309 325.466 170.677C326.095 171.03 326.792 171.206 327.559 171.206ZM339.074 162.857C339.457 162.152 340.024 161.615 340.776 161.247C341.527 160.879 342.439 160.695 343.513 160.695V162.834C343.39 162.819 343.221 162.811 343.007 162.811C341.811 162.811 340.868 163.171 340.178 163.892C339.503 164.597 339.166 165.609 339.166 166.928V173H336.958V160.81H339.074V162.857ZM351.343 173.138C350.131 173.138 349.043 172.87 348.077 172.333C347.111 171.796 346.352 171.06 345.8 170.125C345.263 169.174 344.995 168.101 344.995 166.905C344.995 165.709 345.263 164.643 345.8 163.708C346.352 162.757 347.111 162.021 348.077 161.5C349.043 160.963 350.131 160.695 351.343 160.695C352.554 160.695 353.635 160.963 354.586 161.5C355.552 162.021 356.303 162.757 356.84 163.708C357.392 164.643 357.668 165.709 357.668 166.905C357.668 168.101 357.392 169.174 356.84 170.125C356.303 171.06 355.552 171.796 354.586 172.333C353.635 172.87 352.554 173.138 351.343 173.138ZM351.343 171.206C352.125 171.206 352.822 171.03 353.436 170.677C354.064 170.309 354.555 169.803 354.908 169.159C355.26 168.5 355.437 167.748 355.437 166.905C355.437 166.062 355.26 165.318 354.908 164.674C354.555 164.015 354.064 163.509 353.436 163.156C352.822 162.803 352.125 162.627 351.343 162.627C350.561 162.627 349.855 162.803 349.227 163.156C348.613 163.509 348.123 164.015 347.755 164.674C347.402 165.318 347.226 166.062 347.226 166.905C347.226 167.748 347.402 168.5 347.755 169.159C348.123 169.803 348.613 170.309 349.227 170.677C349.855 171.03 350.561 171.206 351.343 171.206ZM371.172 160.81L365.836 173H363.582L358.246 160.81H360.546L364.732 170.585L369.01 160.81H371.172ZM373.232 160.81H375.44V173H373.232V160.81ZM374.336 158.464C373.907 158.464 373.546 158.326 373.255 158.05C372.979 157.774 372.841 157.437 372.841 157.038C372.841 156.639 372.979 156.302 373.255 156.026C373.546 155.735 373.907 155.589 374.336 155.589C374.765 155.589 375.118 155.727 375.394 156.003C375.685 156.264 375.831 156.593 375.831 156.992C375.831 157.406 375.685 157.759 375.394 158.05C375.118 158.326 374.765 158.464 374.336 158.464ZM383.152 173.138C382.155 173.138 381.197 173.008 380.277 172.747C379.357 172.471 378.636 172.126 378.115 171.712L379.035 169.964C379.572 170.347 380.223 170.654 380.99 170.884C381.757 171.114 382.531 171.229 383.313 171.229C385.245 171.229 386.211 170.677 386.211 169.573C386.211 169.205 386.081 168.914 385.82 168.699C385.559 168.484 385.23 168.331 384.831 168.239C384.448 168.132 383.896 168.017 383.175 167.894C382.194 167.741 381.389 167.564 380.76 167.365C380.147 167.166 379.618 166.828 379.173 166.353C378.728 165.878 378.506 165.211 378.506 164.352C378.506 163.248 378.966 162.366 379.886 161.707C380.806 161.032 382.04 160.695 383.589 160.695C384.402 160.695 385.214 160.795 386.027 160.994C386.84 161.193 387.507 161.462 388.028 161.799L387.085 163.547C386.088 162.903 384.915 162.581 383.566 162.581C382.631 162.581 381.918 162.734 381.427 163.041C380.936 163.348 380.691 163.754 380.691 164.26C380.691 164.659 380.829 164.973 381.105 165.203C381.381 165.433 381.718 165.602 382.117 165.709C382.531 165.816 383.106 165.939 383.842 166.077C384.823 166.246 385.613 166.43 386.211 166.629C386.824 166.813 387.346 167.135 387.775 167.595C388.204 168.055 388.419 168.699 388.419 169.527C388.419 170.631 387.944 171.513 386.993 172.172C386.058 172.816 384.777 173.138 383.152 173.138ZM391.178 160.81H393.386V173H391.178V160.81ZM392.282 158.464C391.853 158.464 391.493 158.326 391.201 158.05C390.925 157.774 390.787 157.437 390.787 157.038C390.787 156.639 390.925 156.302 391.201 156.026C391.493 155.735 391.853 155.589 392.282 155.589C392.712 155.589 393.064 155.727 393.34 156.003C393.632 156.264 393.777 156.593 393.777 156.992C393.777 157.406 393.632 157.759 393.34 158.05C393.064 158.326 392.712 158.464 392.282 158.464ZM402.823 173.138C401.612 173.138 400.523 172.87 399.557 172.333C398.591 171.796 397.832 171.06 397.28 170.125C396.744 169.174 396.475 168.101 396.475 166.905C396.475 165.709 396.744 164.643 397.28 163.708C397.832 162.757 398.591 162.021 399.557 161.5C400.523 160.963 401.612 160.695 402.823 160.695C404.035 160.695 405.116 160.963 406.066 161.5C407.032 162.021 407.784 162.757 408.32 163.708C408.872 164.643 409.148 165.709 409.148 166.905C409.148 168.101 408.872 169.174 408.32 170.125C407.784 171.06 407.032 171.796 406.066 172.333C405.116 172.87 404.035 173.138 402.823 173.138ZM402.823 171.206C403.605 171.206 404.303 171.03 404.916 170.677C405.545 170.309 406.036 169.803 406.388 169.159C406.741 168.5 406.917 167.748 406.917 166.905C406.917 166.062 406.741 165.318 406.388 164.674C406.036 164.015 405.545 163.509 404.916 163.156C404.303 162.803 403.605 162.627 402.823 162.627C402.041 162.627 401.336 162.803 400.707 163.156C400.094 163.509 399.603 164.015 399.235 164.674C398.883 165.318 398.706 166.062 398.706 166.905C398.706 167.748 398.883 168.5 399.235 169.159C399.603 169.803 400.094 170.309 400.707 170.677C401.336 171.03 402.041 171.206 402.823 171.206ZM418.711 160.695C420.26 160.695 421.486 161.147 422.391 162.052C423.311 162.941 423.771 164.252 423.771 165.985V173H421.563V166.238C421.563 165.057 421.279 164.168 420.712 163.57C420.145 162.972 419.332 162.673 418.274 162.673C417.078 162.673 416.135 163.026 415.445 163.731C414.755 164.421 414.41 165.418 414.41 166.721V173H412.202V160.81H414.318V162.65C414.763 162.021 415.361 161.538 416.112 161.201C416.879 160.864 417.745 160.695 418.711 160.695ZM439.255 173.138C438.044 173.138 436.955 172.87 435.989 172.333C435.023 171.796 434.264 171.06 433.712 170.125C433.175 169.174 432.907 168.101 432.907 166.905C432.907 165.709 433.175 164.643 433.712 163.708C434.264 162.757 435.023 162.021 435.989 161.5C436.955 160.963 438.044 160.695 439.255 160.695C440.466 160.695 441.547 160.963 442.498 161.5C443.464 162.021 444.215 162.757 444.752 163.708C445.304 164.643 445.58 165.709 445.58 166.905C445.58 168.101 445.304 169.174 444.752 170.125C444.215 171.06 443.464 171.796 442.498 172.333C441.547 172.87 440.466 173.138 439.255 173.138ZM439.255 171.206C440.037 171.206 440.735 171.03 441.348 170.677C441.977 170.309 442.467 169.803 442.82 169.159C443.173 168.5 443.349 167.748 443.349 166.905C443.349 166.062 443.173 165.318 442.82 164.674C442.467 164.015 441.977 163.509 441.348 163.156C440.735 162.803 440.037 162.627 439.255 162.627C438.473 162.627 437.768 162.803 437.139 163.156C436.526 163.509 436.035 164.015 435.667 164.674C435.314 165.318 435.138 166.062 435.138 166.905C435.138 167.748 435.314 168.5 435.667 169.159C436.035 169.803 436.526 170.309 437.139 170.677C437.768 171.03 438.473 171.206 439.255 171.206ZM453.096 157.613C451.777 157.613 451.118 158.326 451.118 159.752V160.81H454.66V162.627H451.164V173H448.956V162.627H446.886V160.81H448.956V159.729C448.956 158.518 449.308 157.559 450.014 156.854C450.719 156.149 451.708 155.796 452.981 155.796C453.471 155.796 453.931 155.857 454.361 155.98C454.79 156.103 455.158 156.279 455.465 156.509L454.798 158.188C454.292 157.805 453.724 157.613 453.096 157.613ZM462.919 160.81H465.127V173H462.919V160.81ZM464.023 158.464C463.593 158.464 463.233 158.326 462.942 158.05C462.666 157.774 462.528 157.437 462.528 157.038C462.528 156.639 462.666 156.302 462.942 156.026C463.233 155.735 463.593 155.589 464.023 155.589C464.452 155.589 464.805 155.727 465.081 156.003C465.372 156.264 465.518 156.593 465.518 156.992C465.518 157.406 465.372 157.759 465.081 158.05C464.805 158.326 464.452 158.464 464.023 158.464ZM475.852 160.695C477.4 160.695 478.627 161.147 479.532 162.052C480.452 162.941 480.912 164.252 480.912 165.985V173H478.704V166.238C478.704 165.057 478.42 164.168 477.853 163.57C477.285 162.972 476.473 162.673 475.415 162.673C474.219 162.673 473.276 163.026 472.586 163.731C471.896 164.421 471.551 165.418 471.551 166.721V173H469.343V160.81H471.459V162.65C471.903 162.021 472.501 161.538 473.253 161.201C474.019 160.864 474.886 160.695 475.852 160.695ZM489.46 157.613C488.141 157.613 487.482 158.326 487.482 159.752V160.81H491.024V162.627H487.528V173H485.32V162.627H483.25V160.81H485.32V159.729C485.32 158.518 485.672 157.559 486.378 156.854C487.083 156.149 488.072 155.796 489.345 155.796C489.835 155.796 490.295 155.857 490.725 155.98C491.154 156.103 491.522 156.279 491.829 156.509L491.162 158.188C490.656 157.805 490.088 157.613 489.46 157.613ZM498.147 173.138C496.936 173.138 495.847 172.87 494.881 172.333C493.915 171.796 493.156 171.06 492.604 170.125C492.068 169.174 491.799 168.101 491.799 166.905C491.799 165.709 492.068 164.643 492.604 163.708C493.156 162.757 493.915 162.021 494.881 161.5C495.847 160.963 496.936 160.695 498.147 160.695C499.359 160.695 500.44 160.963 501.39 161.5C502.356 162.021 503.108 162.757 503.644 163.708C504.196 164.643 504.472 165.709 504.472 166.905C504.472 168.101 504.196 169.174 503.644 170.125C503.108 171.06 502.356 171.796 501.39 172.333C500.44 172.87 499.359 173.138 498.147 173.138ZM498.147 171.206C498.929 171.206 499.627 171.03 500.24 170.677C500.869 170.309 501.36 169.803 501.712 169.159C502.065 168.5 502.241 167.748 502.241 166.905C502.241 166.062 502.065 165.318 501.712 164.674C501.36 164.015 500.869 163.509 500.24 163.156C499.627 162.803 498.929 162.627 498.147 162.627C497.365 162.627 496.66 162.803 496.031 163.156C495.418 163.509 494.927 164.015 494.559 164.674C494.207 165.318 494.03 166.062 494.03 166.905C494.03 167.748 494.207 168.5 494.559 169.159C494.927 169.803 495.418 170.309 496.031 170.677C496.66 171.03 497.365 171.206 498.147 171.206ZM509.642 162.857C510.025 162.152 510.593 161.615 511.344 161.247C512.095 160.879 513.008 160.695 514.081 160.695V162.834C513.958 162.819 513.79 162.811 513.575 162.811C512.379 162.811 511.436 163.171 510.746 163.892C510.071 164.597 509.734 165.609 509.734 166.928V173H507.526V160.81H509.642V162.857ZM532.051 160.695C533.585 160.695 534.796 161.14 535.685 162.029C536.59 162.918 537.042 164.237 537.042 165.985V173H534.834V166.238C534.834 165.057 534.558 164.168 534.006 163.57C533.47 162.972 532.695 162.673 531.683 162.673C530.564 162.673 529.675 163.026 529.015 163.731C528.356 164.421 528.026 165.418 528.026 166.721V173H525.818V166.238C525.818 165.057 525.542 164.168 524.99 163.57C524.454 162.972 523.679 162.673 522.667 162.673C521.548 162.673 520.659 163.026 519.999 163.731C519.34 164.421 519.01 165.418 519.01 166.721V173H516.802V160.81H518.918V162.627C519.363 161.998 519.946 161.523 520.666 161.201C521.387 160.864 522.207 160.695 523.127 160.695C524.078 160.695 524.921 160.887 525.657 161.27C526.393 161.653 526.961 162.213 527.359 162.949C527.819 162.244 528.456 161.692 529.268 161.293C530.096 160.894 531.024 160.695 532.051 160.695ZM545.544 160.695C547.231 160.695 548.519 161.109 549.408 161.937C550.313 162.765 550.765 163.999 550.765 165.64V173H548.672V171.39C548.304 171.957 547.775 172.394 547.085 172.701C546.411 172.992 545.606 173.138 544.67 173.138C543.306 173.138 542.209 172.808 541.381 172.149C540.569 171.49 540.162 170.623 540.162 169.55C540.162 168.477 540.553 167.618 541.335 166.974C542.117 166.315 543.359 165.985 545.061 165.985H548.557V165.548C548.557 164.597 548.281 163.869 547.729 163.363C547.177 162.857 546.365 162.604 545.291 162.604C544.571 162.604 543.865 162.727 543.175 162.972C542.485 163.202 541.903 163.516 541.427 163.915L540.507 162.259C541.136 161.753 541.887 161.37 542.761 161.109C543.635 160.833 544.563 160.695 545.544 160.695ZM545.038 171.436C545.882 171.436 546.61 171.252 547.223 170.884C547.837 170.501 548.281 169.964 548.557 169.274V167.572H545.153C543.283 167.572 542.347 168.201 542.347 169.458C542.347 170.071 542.585 170.554 543.06 170.907C543.536 171.26 544.195 171.436 545.038 171.436ZM561.705 172.287C561.383 172.563 560.985 172.778 560.509 172.931C560.034 173.069 559.543 173.138 559.037 173.138C557.811 173.138 556.86 172.808 556.185 172.149C555.511 171.49 555.173 170.547 555.173 169.32V162.627H553.103V160.81H555.173V158.142H557.381V160.81H560.877V162.627H557.381V169.228C557.381 169.887 557.542 170.393 557.864 170.746C558.202 171.099 558.677 171.275 559.29 171.275C559.965 171.275 560.54 171.083 561.015 170.7L561.705 172.287ZM564.375 160.81H566.583V173H564.375V160.81ZM565.479 158.464C565.049 158.464 564.689 158.326 564.398 158.05C564.122 157.774 563.984 157.437 563.984 157.038C563.984 156.639 564.122 156.302 564.398 156.026C564.689 155.735 565.049 155.589 565.479 155.589C565.908 155.589 566.261 155.727 566.537 156.003C566.828 156.264 566.974 156.593 566.974 156.992C566.974 157.406 566.828 157.759 566.537 158.05C566.261 158.326 565.908 158.464 565.479 158.464ZM576.02 173.138C574.808 173.138 573.72 172.87 572.754 172.333C571.788 171.796 571.029 171.06 570.477 170.125C569.94 169.174 569.672 168.101 569.672 166.905C569.672 165.709 569.94 164.643 570.477 163.708C571.029 162.757 571.788 162.021 572.754 161.5C573.72 160.963 574.808 160.695 576.02 160.695C577.231 160.695 578.312 160.963 579.263 161.5C580.229 162.021 580.98 162.757 581.517 163.708C582.069 164.643 582.345 165.709 582.345 166.905C582.345 168.101 582.069 169.174 581.517 170.125C580.98 171.06 580.229 171.796 579.263 172.333C578.312 172.87 577.231 173.138 576.02 173.138ZM576.02 171.206C576.802 171.206 577.499 171.03 578.113 170.677C578.741 170.309 579.232 169.803 579.585 169.159C579.937 168.5 580.114 167.748 580.114 166.905C580.114 166.062 579.937 165.318 579.585 164.674C579.232 164.015 578.741 163.509 578.113 163.156C577.499 162.803 576.802 162.627 576.02 162.627C575.238 162.627 574.532 162.803 573.904 163.156C573.29 163.509 572.8 164.015 572.432 164.674C572.079 165.318 571.903 166.062 571.903 166.905C571.903 167.748 572.079 168.5 572.432 169.159C572.8 169.803 573.29 170.309 573.904 170.677C574.532 171.03 575.238 171.206 576.02 171.206ZM591.907 160.695C593.456 160.695 594.683 161.147 595.587 162.052C596.507 162.941 596.967 164.252 596.967 165.985V173H594.759V166.238C594.759 165.057 594.476 164.168 593.908 163.57C593.341 162.972 592.528 162.673 591.47 162.673C590.274 162.673 589.331 163.026 588.641 163.731C587.951 164.421 587.606 165.418 587.606 166.721V173H585.398V160.81H587.514V162.65C587.959 162.021 588.557 161.538 589.308 161.201C590.075 160.864 590.941 160.695 591.907 160.695ZM610.726 173.138C609.73 173.138 608.771 173.008 607.851 172.747C606.931 172.471 606.211 172.126 605.689 171.712L606.609 169.964C607.146 170.347 607.798 170.654 608.564 170.884C609.331 171.114 610.105 171.229 610.887 171.229C612.819 171.229 613.785 170.677 613.785 169.573C613.785 169.205 613.655 168.914 613.394 168.699C613.134 168.484 612.804 168.331 612.405 168.239C612.022 168.132 611.47 168.017 610.749 167.894C609.768 167.741 608.963 167.564 608.334 167.365C607.721 167.166 607.192 166.828 606.747 166.353C606.303 165.878 606.08 165.211 606.08 164.352C606.08 163.248 606.54 162.366 607.46 161.707C608.38 161.032 609.615 160.695 611.163 160.695C611.976 160.695 612.789 160.795 613.601 160.994C614.414 161.193 615.081 161.462 615.602 161.799L614.659 163.547C613.663 162.903 612.49 162.581 611.14 162.581C610.205 162.581 609.492 162.734 609.001 163.041C608.511 163.348 608.265 163.754 608.265 164.26C608.265 164.659 608.403 164.973 608.679 165.203C608.955 165.433 609.293 165.602 609.691 165.709C610.105 165.816 610.68 165.939 611.416 166.077C612.398 166.246 613.187 166.43 613.785 166.629C614.399 166.813 614.92 167.135 615.349 167.595C615.779 168.055 615.993 168.699 615.993 169.527C615.993 170.631 615.518 171.513 614.567 172.172C613.632 172.816 612.352 173.138 610.726 173.138ZM629.77 166.974C629.77 167.143 629.754 167.365 629.724 167.641H619.834C619.972 168.714 620.439 169.581 621.237 170.24C622.049 170.884 623.054 171.206 624.25 171.206C625.706 171.206 626.879 170.715 627.769 169.734L628.988 171.16C628.436 171.804 627.746 172.295 626.918 172.632C626.105 172.969 625.193 173.138 624.181 173.138C622.893 173.138 621.75 172.877 620.754 172.356C619.757 171.819 618.983 171.076 618.431 170.125C617.894 169.174 617.626 168.101 617.626 166.905C617.626 165.724 617.886 164.659 618.408 163.708C618.944 162.757 619.673 162.021 620.593 161.5C621.528 160.963 622.578 160.695 623.744 160.695C624.909 160.695 625.944 160.963 626.849 161.5C627.769 162.021 628.482 162.757 628.988 163.708C629.509 164.659 629.77 165.747 629.77 166.974ZM623.744 162.558C622.686 162.558 621.796 162.88 621.076 163.524C620.37 164.168 619.956 165.011 619.834 166.054H627.654C627.531 165.027 627.109 164.191 626.389 163.547C625.683 162.888 624.802 162.558 623.744 162.558ZM634.952 162.857C635.335 162.152 635.902 161.615 636.654 161.247C637.405 160.879 638.317 160.695 639.391 160.695V162.834C639.268 162.819 639.099 162.811 638.885 162.811C637.689 162.811 636.746 163.171 636.056 163.892C635.381 164.597 635.044 165.609 635.044 166.928V173H632.836V160.81H634.952V162.857ZM653.393 160.81L648.057 173H645.803L640.467 160.81H642.767L646.953 170.585L651.231 160.81H653.393ZM655.454 160.81H657.662V173H655.454V160.81ZM656.558 158.464C656.129 158.464 655.768 158.326 655.477 158.05C655.201 157.774 655.063 157.437 655.063 157.038C655.063 156.639 655.201 156.302 655.477 156.026C655.768 155.735 656.129 155.589 656.558 155.589C656.987 155.589 657.34 155.727 657.616 156.003C657.907 156.264 658.053 156.593 658.053 156.992C658.053 157.406 657.907 157.759 657.616 158.05C657.34 158.326 656.987 158.464 656.558 158.464ZM667.191 173.138C665.949 173.138 664.837 172.87 663.856 172.333C662.89 171.796 662.131 171.06 661.579 170.125C661.027 169.174 660.751 168.101 660.751 166.905C660.751 165.709 661.027 164.643 661.579 163.708C662.131 162.757 662.89 162.021 663.856 161.5C664.837 160.963 665.949 160.695 667.191 160.695C668.295 160.695 669.276 160.917 670.135 161.362C671.009 161.807 671.683 162.451 672.159 163.294L670.48 164.375C670.096 163.792 669.621 163.355 669.054 163.064C668.486 162.773 667.858 162.627 667.168 162.627C666.37 162.627 665.65 162.803 665.006 163.156C664.377 163.509 663.879 164.015 663.511 164.674C663.158 165.318 662.982 166.062 662.982 166.905C662.982 167.764 663.158 168.523 663.511 169.182C663.879 169.826 664.377 170.324 665.006 170.677C665.65 171.03 666.37 171.206 667.168 171.206C667.858 171.206 668.486 171.06 669.054 170.769C669.621 170.478 670.096 170.041 670.48 169.458L672.159 170.516C671.683 171.359 671.009 172.011 670.135 172.471C669.276 172.916 668.295 173.138 667.191 173.138ZM685.855 166.974C685.855 167.143 685.839 167.365 685.809 167.641H675.919C676.057 168.714 676.524 169.581 677.322 170.24C678.134 170.884 679.139 171.206 680.335 171.206C681.791 171.206 682.964 170.715 683.854 169.734L685.073 171.16C684.521 171.804 683.831 172.295 683.003 172.632C682.19 172.969 681.278 173.138 680.266 173.138C678.978 173.138 677.835 172.877 676.839 172.356C675.842 171.819 675.068 171.076 674.516 170.125C673.979 169.174 673.711 168.101 673.711 166.905C673.711 165.724 673.971 164.659 674.493 163.708C675.029 162.757 675.758 162.021 676.678 161.5C677.613 160.963 678.663 160.695 679.829 160.695C680.994 160.695 682.029 160.963 682.934 161.5C683.854 162.021 684.567 162.757 685.073 163.708C685.594 164.659 685.855 165.747 685.855 166.974ZM679.829 162.558C678.771 162.558 677.881 162.88 677.161 163.524C676.455 164.168 676.041 165.011 675.919 166.054H683.739C683.616 165.027 683.194 164.191 682.474 163.547C681.768 162.888 680.887 162.558 679.829 162.558ZM692.417 173.138C691.42 173.138 690.462 173.008 689.542 172.747C688.622 172.471 687.901 172.126 687.38 171.712L688.3 169.964C688.836 170.347 689.488 170.654 690.255 170.884C691.021 171.114 691.796 171.229 692.578 171.229C694.51 171.229 695.476 170.677 695.476 169.573C695.476 169.205 695.345 168.914 695.085 168.699C694.824 168.484 694.494 168.331 694.096 168.239C693.712 168.132 693.16 168.017 692.44 167.894C691.458 167.741 690.653 167.564 690.025 167.365C689.411 167.166 688.882 166.828 688.438 166.353C687.993 165.878 687.771 165.211 687.771 164.352C687.771 163.248 688.231 162.366 689.151 161.707C690.071 161.032 691.305 160.695 692.854 160.695C693.666 160.695 694.479 160.795 695.292 160.994C696.104 161.193 696.771 161.462 697.293 161.799L696.35 163.547C695.353 162.903 694.18 162.581 692.831 162.581C691.895 162.581 691.182 162.734 690.692 163.041C690.201 163.348 689.956 163.754 689.956 164.26C689.956 164.659 690.094 164.973 690.37 165.203C690.646 165.433 690.983 165.602 691.382 165.709C691.796 165.816 692.371 165.939 693.107 166.077C694.088 166.246 694.878 166.43 695.476 166.629C696.089 166.813 696.61 167.135 697.04 167.595C697.469 168.055 697.684 168.699 697.684 169.527C697.684 170.631 697.208 171.513 696.258 172.172C695.322 172.816 694.042 173.138 692.417 173.138ZM706.62 160.81H708.828V173H706.62V160.81ZM707.724 158.464C707.295 158.464 706.934 158.326 706.643 158.05C706.367 157.774 706.229 157.437 706.229 157.038C706.229 156.639 706.367 156.302 706.643 156.026C706.934 155.735 707.295 155.589 707.724 155.589C708.153 155.589 708.506 155.727 708.782 156.003C709.073 156.264 709.219 156.593 709.219 156.992C709.219 157.406 709.073 157.759 708.782 158.05C708.506 158.326 708.153 158.464 707.724 158.464ZM719.553 160.695C721.101 160.695 722.328 161.147 723.233 162.052C724.153 162.941 724.613 164.252 724.613 165.985V173H722.405V166.238C722.405 165.057 722.121 164.168 721.554 163.57C720.986 162.972 720.174 162.673 719.116 162.673C717.92 162.673 716.977 163.026 716.287 163.731C715.597 164.421 715.252 165.418 715.252 166.721V173H713.044V160.81H715.16V162.65C715.604 162.021 716.202 161.538 716.954 161.201C717.72 160.864 718.587 160.695 719.553 160.695ZM741.73 172.287C741.408 172.563 741.009 172.778 740.534 172.931C740.058 173.069 739.568 173.138 739.062 173.138C737.835 173.138 736.884 172.808 736.21 172.149C735.535 171.49 735.198 170.547 735.198 169.32V162.627H733.128V160.81H735.198V158.142H737.406V160.81H740.902V162.627H737.406V169.228C737.406 169.887 737.567 170.393 737.889 170.746C738.226 171.099 738.701 171.275 739.315 171.275C739.989 171.275 740.564 171.083 741.04 170.7L741.73 172.287ZM750.908 160.695C752.457 160.695 753.683 161.147 754.588 162.052C755.508 162.941 755.968 164.252 755.968 165.985V173H753.76V166.238C753.76 165.057 753.476 164.168 752.909 163.57C752.342 162.972 751.529 162.673 750.471 162.673C749.275 162.673 748.332 163.026 747.642 163.731C746.952 164.421 746.607 165.418 746.607 166.721V173H744.399V155.934H746.607V162.535C747.067 161.952 747.665 161.5 748.401 161.178C749.152 160.856 749.988 160.695 750.908 160.695ZM771.139 166.974C771.139 167.143 771.123 167.365 771.093 167.641H761.203C761.341 168.714 761.808 169.581 762.606 170.24C763.418 170.884 764.423 171.206 765.619 171.206C767.075 171.206 768.248 170.715 769.138 169.734L770.357 171.16C769.805 171.804 769.115 172.295 768.287 172.632C767.474 172.969 766.562 173.138 765.55 173.138C764.262 173.138 763.119 172.877 762.123 172.356C761.126 171.819 760.352 171.076 759.8 170.125C759.263 169.174 758.995 168.101 758.995 166.905C758.995 165.724 759.255 164.659 759.777 163.708C760.313 162.757 761.042 162.021 761.962 161.5C762.897 160.963 763.947 160.695 765.113 160.695C766.278 160.695 767.313 160.963 768.218 161.5C769.138 162.021 769.851 162.757 770.357 163.708C770.878 164.659 771.139 165.747 771.139 166.974ZM765.113 162.558C764.055 162.558 763.165 162.88 762.445 163.524C761.739 164.168 761.325 165.011 761.203 166.054H769.023C768.9 165.027 768.478 164.191 767.758 163.547C767.052 162.888 766.171 162.558 765.113 162.558ZM784.844 157.613C783.525 157.613 782.866 158.326 782.866 159.752V160.81H786.408V162.627H782.912V173H780.704V162.627H778.634V160.81H780.704V159.729C780.704 158.518 781.056 157.559 781.762 156.854C782.467 156.149 783.456 155.796 784.729 155.796C785.219 155.796 785.679 155.857 786.109 155.98C786.538 156.103 786.906 156.279 787.213 156.509L786.546 158.188C786.04 157.805 785.472 157.613 784.844 157.613ZM790.341 160.81H792.549V173H790.341V160.81ZM791.445 158.464C791.015 158.464 790.655 158.326 790.364 158.05C790.088 157.774 789.95 157.437 789.95 157.038C789.95 156.639 790.088 156.302 790.364 156.026C790.655 155.735 791.015 155.589 791.445 155.589C791.874 155.589 792.227 155.727 792.503 156.003C792.794 156.264 792.94 156.593 792.94 156.992C792.94 157.406 792.794 157.759 792.503 158.05C792.227 158.326 791.874 158.464 791.445 158.464ZM807.773 166.974C807.773 167.143 807.757 167.365 807.727 167.641H797.837C797.975 168.714 798.442 169.581 799.24 170.24C800.052 170.884 801.057 171.206 802.253 171.206C803.709 171.206 804.882 170.715 805.772 169.734L806.991 171.16C806.439 171.804 805.749 172.295 804.921 172.632C804.108 172.969 803.196 173.138 802.184 173.138C800.896 173.138 799.753 172.877 798.757 172.356C797.76 171.819 796.986 171.076 796.434 170.125C795.897 169.174 795.629 168.101 795.629 166.905C795.629 165.724 795.889 164.659 796.411 163.708C796.947 162.757 797.676 162.021 798.596 161.5C799.531 160.963 800.581 160.695 801.747 160.695C802.912 160.695 803.947 160.963 804.852 161.5C805.772 162.021 806.485 162.757 806.991 163.708C807.512 164.659 807.773 165.747 807.773 166.974ZM801.747 162.558C800.689 162.558 799.799 162.88 799.079 163.524C798.373 164.168 797.959 165.011 797.837 166.054H805.657C805.534 165.027 805.112 164.191 804.392 163.547C803.686 162.888 802.805 162.558 801.747 162.558ZM810.839 155.934H813.047V173H810.839V155.934ZM828.762 155.934V173H826.646V171.068C826.156 171.743 825.535 172.256 824.783 172.609C824.032 172.962 823.204 173.138 822.299 173.138C821.119 173.138 820.061 172.877 819.125 172.356C818.19 171.835 817.454 171.106 816.917 170.171C816.396 169.22 816.135 168.132 816.135 166.905C816.135 165.678 816.396 164.597 816.917 163.662C817.454 162.727 818.19 161.998 819.125 161.477C820.061 160.956 821.119 160.695 822.299 160.695C823.173 160.695 823.978 160.864 824.714 161.201C825.45 161.523 826.064 162.006 826.554 162.65V155.934H828.762ZM822.483 171.206C823.25 171.206 823.948 171.03 824.576 170.677C825.205 170.309 825.696 169.803 826.048 169.159C826.401 168.5 826.577 167.748 826.577 166.905C826.577 166.062 826.401 165.318 826.048 164.674C825.696 164.015 825.205 163.509 824.576 163.156C823.948 162.803 823.25 162.627 822.483 162.627C821.701 162.627 820.996 162.803 820.367 163.156C819.754 163.509 819.263 164.015 818.895 164.674C818.543 165.318 818.366 166.062 818.366 166.905C818.366 167.748 818.543 168.5 818.895 169.159C819.263 169.803 819.754 170.309 820.367 170.677C820.996 171.03 821.701 171.206 822.483 171.206ZM844.338 173.138C843.127 173.138 842.038 172.87 841.072 172.333C840.106 171.796 839.347 171.06 838.795 170.125C838.258 169.174 837.99 168.101 837.99 166.905C837.99 165.709 838.258 164.643 838.795 163.708C839.347 162.757 840.106 162.021 841.072 161.5C842.038 160.963 843.127 160.695 844.338 160.695C845.549 160.695 846.63 160.963 847.581 161.5C848.547 162.021 849.298 162.757 849.835 163.708C850.387 164.643 850.663 165.709 850.663 166.905C850.663 168.101 850.387 169.174 849.835 170.125C849.298 171.06 848.547 171.796 847.581 172.333C846.63 172.87 845.549 173.138 844.338 173.138ZM844.338 171.206C845.12 171.206 845.818 171.03 846.431 170.677C847.06 170.309 847.55 169.803 847.903 169.159C848.256 168.5 848.432 167.748 848.432 166.905C848.432 166.062 848.256 165.318 847.903 164.674C847.55 164.015 847.06 163.509 846.431 163.156C845.818 162.803 845.12 162.627 844.338 162.627C843.556 162.627 842.851 162.803 842.222 163.156C841.609 163.509 841.118 164.015 840.75 164.674C840.397 165.318 840.221 166.062 840.221 166.905C840.221 167.748 840.397 168.5 840.75 169.159C841.118 169.803 841.609 170.309 842.222 170.677C842.851 171.03 843.556 171.206 844.338 171.206ZM858.179 157.613C856.86 157.613 856.201 158.326 856.201 159.752V160.81H859.743V162.627H856.247V173H854.039V162.627H851.969V160.81H854.039V159.729C854.039 158.518 854.391 157.559 855.097 156.854C855.802 156.149 856.791 155.796 858.064 155.796C858.554 155.796 859.014 155.857 859.444 155.98C859.873 156.103 860.241 156.279 860.548 156.509L859.881 158.188C859.375 157.805 858.807 157.613 858.179 157.613ZM873.315 173.138C872.073 173.138 870.961 172.87 869.98 172.333C869.014 171.796 868.255 171.06 867.703 170.125C867.151 169.174 866.875 168.101 866.875 166.905C866.875 165.709 867.151 164.643 867.703 163.708C868.255 162.757 869.014 162.021 869.98 161.5C870.961 160.963 872.073 160.695 873.315 160.695C874.419 160.695 875.4 160.917 876.259 161.362C877.133 161.807 877.807 162.451 878.283 163.294L876.604 164.375C876.22 163.792 875.745 163.355 875.178 163.064C874.61 162.773 873.982 162.627 873.292 162.627C872.494 162.627 871.774 162.803 871.13 163.156C870.501 163.509 870.003 164.015 869.635 164.674C869.282 165.318 869.106 166.062 869.106 166.905C869.106 167.764 869.282 168.523 869.635 169.182C870.003 169.826 870.501 170.324 871.13 170.677C871.774 171.03 872.494 171.206 873.292 171.206C873.982 171.206 874.61 171.06 875.178 170.769C875.745 170.478 876.22 170.041 876.604 169.458L878.283 170.516C877.807 171.359 877.133 172.011 876.259 172.471C875.4 172.916 874.419 173.138 873.315 173.138ZM892.503 160.81V173H890.41V171.16C889.966 171.789 889.375 172.279 888.639 172.632C887.919 172.969 887.129 173.138 886.27 173.138C884.645 173.138 883.365 172.693 882.429 171.804C881.494 170.899 881.026 169.573 881.026 167.825V160.81H883.234V167.572C883.234 168.753 883.518 169.65 884.085 170.263C884.653 170.861 885.465 171.16 886.523 171.16C887.689 171.16 888.609 170.807 889.283 170.102C889.958 169.397 890.295 168.4 890.295 167.112V160.81H892.503ZM896.707 155.934H898.915V173H896.707V155.934ZM910.277 172.287C909.955 172.563 909.556 172.778 909.081 172.931C908.605 173.069 908.115 173.138 907.609 173.138C906.382 173.138 905.431 172.808 904.757 172.149C904.082 171.49 903.745 170.547 903.745 169.32V162.627H901.675V160.81H903.745V158.142H905.953V160.81H909.449V162.627H905.953V169.228C905.953 169.887 906.114 170.393 906.436 170.746C906.773 171.099 907.248 171.275 907.862 171.275C908.536 171.275 909.111 171.083 909.587 170.7L910.277 172.287ZM924.308 160.81V173H922.215V171.16C921.77 171.789 921.18 172.279 920.444 172.632C919.723 172.969 918.934 173.138 918.075 173.138C916.45 173.138 915.169 172.693 914.234 171.804C913.299 170.899 912.831 169.573 912.831 167.825V160.81H915.039V167.572C915.039 168.753 915.323 169.65 915.89 170.263C916.457 170.861 917.27 171.16 918.328 171.16C919.493 171.16 920.413 170.807 921.088 170.102C921.763 169.397 922.1 168.4 922.1 167.112V160.81H924.308ZM930.627 162.857C931.011 162.152 931.578 161.615 932.329 161.247C933.081 160.879 933.993 160.695 935.066 160.695V162.834C934.944 162.819 934.775 162.811 934.56 162.811C933.364 162.811 932.421 163.171 931.731 163.892C931.057 164.597 930.719 165.609 930.719 166.928V173H928.511V160.81H930.627V162.857ZM948.693 166.974C948.693 167.143 948.677 167.365 948.647 167.641H938.757C938.895 168.714 939.362 169.581 940.16 170.24C940.972 170.884 941.977 171.206 943.173 171.206C944.629 171.206 945.802 170.715 946.692 169.734L947.911 171.16C947.359 171.804 946.669 172.295 945.841 172.632C945.028 172.969 944.116 173.138 943.104 173.138C941.816 173.138 940.673 172.877 939.677 172.356C938.68 171.819 937.906 171.076 937.354 170.125C936.817 169.174 936.549 168.101 936.549 166.905C936.549 165.724 936.809 164.659 937.331 163.708C937.867 162.757 938.596 162.021 939.516 161.5C940.451 160.963 941.501 160.695 942.667 160.695C943.832 160.695 944.867 160.963 945.772 161.5C946.692 162.021 947.405 162.757 947.911 163.708C948.432 164.659 948.693 165.747 948.693 166.974ZM942.667 162.558C941.609 162.558 940.719 162.88 939.999 163.524C939.293 164.168 938.879 165.011 938.757 166.054H946.577C946.454 165.027 946.032 164.191 945.312 163.547C944.606 162.888 943.725 162.558 942.667 162.558ZM952.311 169.987C952.74 169.987 953.093 170.14 953.369 170.447C953.66 170.738 953.806 171.106 953.806 171.551C953.806 171.781 953.775 172.003 953.714 172.218C953.668 172.433 953.568 172.762 953.415 173.207L952.334 176.404H950.885L951.736 172.977C951.444 172.87 951.207 172.693 951.023 172.448C950.854 172.187 950.77 171.888 950.77 171.551C950.77 171.091 950.915 170.715 951.207 170.424C951.498 170.133 951.866 169.987 952.311 169.987ZM974.163 166.974C974.163 167.143 974.148 167.365 974.117 167.641H964.227C964.365 168.714 964.833 169.581 965.63 170.24C966.443 170.884 967.447 171.206 968.643 171.206C970.1 171.206 971.273 170.715 972.162 169.734L973.381 171.16C972.829 171.804 972.139 172.295 971.311 172.632C970.499 172.969 969.586 173.138 968.574 173.138C967.286 173.138 966.144 172.877 965.147 172.356C964.151 171.819 963.376 171.076 962.824 170.125C962.288 169.174 962.019 168.101 962.019 166.905C962.019 165.724 962.28 164.659 962.801 163.708C963.338 162.757 964.066 162.021 964.986 161.5C965.922 160.963 966.972 160.695 968.137 160.695C969.303 160.695 970.338 160.963 971.242 161.5C972.162 162.021 972.875 162.757 973.381 163.708C973.903 164.659 974.163 165.747 974.163 166.974ZM968.137 162.558C967.079 162.558 966.19 162.88 965.469 163.524C964.764 164.168 964.35 165.011 964.227 166.054H972.047C971.925 165.027 971.503 164.191 970.782 163.547C970.077 162.888 969.195 162.558 968.137 162.558ZM983.738 160.695C985.287 160.695 986.514 161.147 987.418 162.052C988.338 162.941 988.798 164.252 988.798 165.985V173H986.59V166.238C986.59 165.057 986.307 164.168 985.739 163.57C985.172 162.972 984.359 162.673 983.301 162.673C982.105 162.673 981.162 163.026 980.472 163.731C979.782 164.421 979.437 165.418 979.437 166.721V173H977.229V160.81H979.345V162.65C979.79 162.021 980.388 161.538 981.139 161.201C981.906 160.864 982.772 160.695 983.738 160.695ZM999.739 172.287C999.417 172.563 999.018 172.778 998.543 172.931C998.067 173.069 997.577 173.138 997.071 173.138C995.844 173.138 994.893 172.808 994.219 172.149C993.544 171.49 993.207 170.547 993.207 169.32V162.627H991.137V160.81H993.207V158.142H995.415V160.81H998.911V162.627H995.415V169.228C995.415 169.887 995.576 170.393 995.898 170.746C996.235 171.099 996.71 171.275 997.324 171.275C997.998 171.275 998.573 171.083 999.049 170.7L999.739 172.287ZM1013.02 166.974C1013.02 167.143 1013.01 167.365 1012.97 167.641H1003.08C1003.22 168.714 1003.69 169.581 1004.49 170.24C1005.3 170.884 1006.3 171.206 1007.5 171.206C1008.96 171.206 1010.13 170.715 1011.02 169.734L1012.24 171.16C1011.69 171.804 1011 172.295 1010.17 172.632C1009.36 172.969 1008.44 173.138 1007.43 173.138C1006.14 173.138 1005 172.877 1004 172.356C1003.01 171.819 1002.23 171.076 1001.68 170.125C1001.14 169.174 1000.88 168.101 1000.88 166.905C1000.88 165.724 1001.14 164.659 1001.66 163.708C1002.2 162.757 1002.92 162.021 1003.84 161.5C1004.78 160.963 1005.83 160.695 1006.99 160.695C1008.16 160.695 1009.19 160.963 1010.1 161.5C1011.02 162.021 1011.73 162.757 1012.24 163.708C1012.76 164.659 1013.02 165.747 1013.02 166.974ZM1006.99 162.558C1005.94 162.558 1005.05 162.88 1004.33 163.524C1003.62 164.168 1003.21 165.011 1003.08 166.054H1010.9C1010.78 165.027 1010.36 164.191 1009.64 163.547C1008.93 162.888 1008.05 162.558 1006.99 162.558ZM1018.2 162.857C1018.59 162.152 1019.15 161.615 1019.9 161.247C1020.66 160.879 1021.57 160.695 1022.64 160.695V162.834C1022.52 162.819 1022.35 162.811 1022.14 162.811C1020.94 162.811 1020 163.171 1019.31 163.892C1018.63 164.597 1018.29 165.609 1018.29 166.928V173H1016.09V160.81H1018.2V162.857ZM1032.71 172.287C1032.39 172.563 1031.99 172.778 1031.52 172.931C1031.04 173.069 1030.55 173.138 1030.04 173.138C1028.82 173.138 1027.87 172.808 1027.19 172.149C1026.52 171.49 1026.18 170.547 1026.18 169.32V162.627H1024.11V160.81H1026.18V158.142H1028.39V160.81H1031.88V162.627H1028.39V169.228C1028.39 169.887 1028.55 170.393 1028.87 170.746C1029.21 171.099 1029.68 171.275 1030.3 171.275C1030.97 171.275 1031.55 171.083 1032.02 170.7L1032.71 172.287ZM1039.82 160.695C1041.51 160.695 1042.79 161.109 1043.68 161.937C1044.59 162.765 1045.04 163.999 1045.04 165.64V173H1042.95V171.39C1042.58 171.957 1042.05 172.394 1041.36 172.701C1040.69 172.992 1039.88 173.138 1038.95 173.138C1037.58 173.138 1036.48 172.808 1035.66 172.149C1034.84 171.49 1034.44 170.623 1034.44 169.55C1034.44 168.477 1034.83 167.618 1035.61 166.974C1036.39 166.315 1037.63 165.985 1039.34 165.985H1042.83V165.548C1042.83 164.597 1042.56 163.869 1042 163.363C1041.45 162.857 1040.64 162.604 1039.57 162.604C1038.85 162.604 1038.14 162.727 1037.45 162.972C1036.76 163.202 1036.18 163.516 1035.7 163.915L1034.78 162.259C1035.41 161.753 1036.16 161.37 1037.04 161.109C1037.91 160.833 1038.84 160.695 1039.82 160.695ZM1039.31 171.436C1040.16 171.436 1040.89 171.252 1041.5 170.884C1042.11 170.501 1042.56 169.964 1042.83 169.274V167.572H1039.43C1037.56 167.572 1036.62 168.201 1036.62 169.458C1036.62 170.071 1036.86 170.554 1037.34 170.907C1037.81 171.26 1038.47 171.436 1039.31 171.436ZM1049.13 160.81H1051.33V173H1049.13V160.81ZM1050.23 158.464C1049.8 158.464 1049.44 158.326 1049.15 158.05C1048.87 157.774 1048.74 157.437 1048.74 157.038C1048.74 156.639 1048.87 156.302 1049.15 156.026C1049.44 155.735 1049.8 155.589 1050.23 155.589C1050.66 155.589 1051.01 155.727 1051.29 156.003C1051.58 156.264 1051.73 156.593 1051.73 156.992C1051.73 157.406 1051.58 157.759 1051.29 158.05C1051.01 158.326 1050.66 158.464 1050.23 158.464ZM1062.06 160.695C1063.61 160.695 1064.83 161.147 1065.74 162.052C1066.66 162.941 1067.12 164.252 1067.12 165.985V173H1064.91V166.238C1064.91 165.057 1064.63 164.168 1064.06 163.57C1063.49 162.972 1062.68 162.673 1061.62 162.673C1060.43 162.673 1059.48 163.026 1058.79 163.731C1058.1 164.421 1057.76 165.418 1057.76 166.721V173H1055.55V160.81H1057.67V162.65C1058.11 162.021 1058.71 161.538 1059.46 161.201C1060.23 160.864 1061.09 160.695 1062.06 160.695ZM1086.45 160.695C1087.99 160.695 1089.2 161.14 1090.09 162.029C1090.99 162.918 1091.45 164.237 1091.45 165.985V173H1089.24V166.238C1089.24 165.057 1088.96 164.168 1088.41 163.57C1087.87 162.972 1087.1 162.673 1086.09 162.673C1084.97 162.673 1084.08 163.026 1083.42 163.731C1082.76 164.421 1082.43 165.418 1082.43 166.721V173H1080.22V166.238C1080.22 165.057 1079.95 164.168 1079.39 163.57C1078.86 162.972 1078.08 162.673 1077.07 162.673C1075.95 162.673 1075.06 163.026 1074.4 163.731C1073.74 164.421 1073.41 165.418 1073.41 166.721V173H1071.21V160.81H1073.32V162.627C1073.77 161.998 1074.35 161.523 1075.07 161.201C1075.79 160.864 1076.61 160.695 1077.53 160.695C1078.48 160.695 1079.32 160.887 1080.06 161.27C1080.8 161.653 1081.36 162.213 1081.76 162.949C1082.22 162.244 1082.86 161.692 1083.67 161.293C1084.5 160.894 1085.43 160.695 1086.45 160.695ZM1106.59 166.974C1106.59 167.143 1106.58 167.365 1106.55 167.641H1096.66C1096.79 168.714 1097.26 169.581 1098.06 170.24C1098.87 170.884 1099.88 171.206 1101.07 171.206C1102.53 171.206 1103.7 170.715 1104.59 169.734L1105.81 171.16C1105.26 171.804 1104.57 172.295 1103.74 172.632C1102.93 172.969 1102.02 173.138 1101 173.138C1099.72 173.138 1098.57 172.877 1097.58 172.356C1096.58 171.819 1095.81 171.076 1095.25 170.125C1094.72 169.174 1094.45 168.101 1094.45 166.905C1094.45 165.724 1094.71 164.659 1095.23 163.708C1095.77 162.757 1096.5 162.021 1097.42 161.5C1098.35 160.963 1099.4 160.695 1100.57 160.695C1101.73 160.695 1102.77 160.963 1103.67 161.5C1104.59 162.021 1105.3 162.757 1105.81 163.708C1106.33 164.659 1106.59 165.747 1106.59 166.974ZM1100.57 162.558C1099.51 162.558 1098.62 162.88 1097.9 163.524C1097.19 164.168 1096.78 165.011 1096.66 166.054H1104.48C1104.35 165.027 1103.93 164.191 1103.21 163.547C1102.51 162.888 1101.62 162.558 1100.57 162.558ZM1116.17 160.695C1117.72 160.695 1118.94 161.147 1119.85 162.052C1120.77 162.941 1121.23 164.252 1121.23 165.985V173H1119.02V166.238C1119.02 165.057 1118.74 164.168 1118.17 163.57C1117.6 162.972 1116.79 162.673 1115.73 162.673C1114.53 162.673 1113.59 163.026 1112.9 163.731C1112.21 164.421 1111.87 165.418 1111.87 166.721V173H1109.66V160.81H1111.77V162.65C1112.22 162.021 1112.82 161.538 1113.57 161.201C1114.34 160.864 1115.2 160.695 1116.17 160.695ZM1132.17 172.287C1131.85 172.563 1131.45 172.778 1130.97 172.931C1130.5 173.069 1130.01 173.138 1129.5 173.138C1128.27 173.138 1127.32 172.808 1126.65 172.149C1125.97 171.49 1125.64 170.547 1125.64 169.32V162.627H1123.57V160.81H1125.64V158.142H1127.84V160.81H1131.34V162.627H1127.84V169.228C1127.84 169.887 1128.01 170.393 1128.33 170.746C1128.66 171.099 1129.14 171.275 1129.75 171.275C1130.43 171.275 1131 171.083 1131.48 170.7L1132.17 172.287ZM1145.45 160.695C1147.14 160.695 1148.43 161.109 1149.32 161.937C1150.22 162.765 1150.67 163.999 1150.67 165.64V173H1148.58V171.39C1148.21 171.957 1147.68 172.394 1146.99 172.701C1146.32 172.992 1145.51 173.138 1144.58 173.138C1143.21 173.138 1142.12 172.808 1141.29 172.149C1140.48 171.49 1140.07 170.623 1140.07 169.55C1140.07 168.477 1140.46 167.618 1141.24 166.974C1142.03 166.315 1143.27 165.985 1144.97 165.985H1148.47V165.548C1148.47 164.597 1148.19 163.869 1147.64 163.363C1147.09 162.857 1146.27 162.604 1145.2 162.604C1144.48 162.604 1143.77 162.727 1143.08 162.972C1142.39 163.202 1141.81 163.516 1141.34 163.915L1140.42 162.259C1141.05 161.753 1141.8 161.37 1142.67 161.109C1143.54 160.833 1144.47 160.695 1145.45 160.695ZM1144.95 171.436C1145.79 171.436 1146.52 171.252 1147.13 170.884C1147.75 170.501 1148.19 169.964 1148.47 169.274V167.572H1145.06C1143.19 167.572 1142.26 168.201 1142.26 169.458C1142.26 170.071 1142.49 170.554 1142.97 170.907C1143.44 171.26 1144.1 171.436 1144.95 171.436ZM1161.27 160.695C1162.82 160.695 1164.04 161.147 1164.95 162.052C1165.87 162.941 1166.33 164.252 1166.33 165.985V173H1164.12V166.238C1164.12 165.057 1163.84 164.168 1163.27 163.57C1162.7 162.972 1161.89 162.673 1160.83 162.673C1159.64 162.673 1158.69 163.026 1158 163.731C1157.31 164.421 1156.97 165.418 1156.97 166.721V173H1154.76V160.81H1156.88V162.65C1157.32 162.021 1157.92 161.538 1158.67 161.201C1159.44 160.864 1160.3 160.695 1161.27 160.695ZM1181.98 155.934V173H1179.87V171.068C1179.38 171.743 1178.76 172.256 1178 172.609C1177.25 172.962 1176.42 173.138 1175.52 173.138C1174.34 173.138 1173.28 172.877 1172.35 172.356C1171.41 171.835 1170.67 171.106 1170.14 170.171C1169.62 169.22 1169.36 168.132 1169.36 166.905C1169.36 165.678 1169.62 164.597 1170.14 163.662C1170.67 162.727 1171.41 161.998 1172.35 161.477C1173.28 160.956 1174.34 160.695 1175.52 160.695C1176.39 160.695 1177.2 160.864 1177.94 161.201C1178.67 161.523 1179.28 162.006 1179.78 162.65V155.934H1181.98ZM1175.7 171.206C1176.47 171.206 1177.17 171.03 1177.8 170.677C1178.43 170.309 1178.92 169.803 1179.27 169.159C1179.62 168.5 1179.8 167.748 1179.8 166.905C1179.8 166.062 1179.62 165.318 1179.27 164.674C1178.92 164.015 1178.43 163.509 1177.8 163.156C1177.17 162.803 1176.47 162.627 1175.7 162.627C1174.92 162.627 1174.22 162.803 1173.59 163.156C1172.97 163.509 1172.48 164.015 1172.12 164.674C1171.76 165.318 1171.59 166.062 1171.59 166.905C1171.59 167.748 1171.76 168.5 1172.12 169.159C1172.48 169.803 1172.97 170.309 1173.59 170.677C1174.22 171.03 1174.92 171.206 1175.7 171.206ZM1192.34 155.934H1194.55V173H1192.34V155.934ZM1209.78 166.974C1209.78 167.143 1209.76 167.365 1209.73 167.641H1199.84C1199.98 168.714 1200.45 169.581 1201.25 170.24C1202.06 170.884 1203.06 171.206 1204.26 171.206C1205.72 171.206 1206.89 170.715 1207.78 169.734L1209 171.16C1208.44 171.804 1207.75 172.295 1206.93 172.632C1206.11 172.969 1205.2 173.138 1204.19 173.138C1202.9 173.138 1201.76 172.877 1200.76 172.356C1199.77 171.819 1198.99 171.076 1198.44 170.125C1197.9 169.174 1197.63 168.101 1197.63 166.905C1197.63 165.724 1197.9 164.659 1198.42 163.708C1198.95 162.757 1199.68 162.021 1200.6 161.5C1201.54 160.963 1202.59 160.695 1203.75 160.695C1204.92 160.695 1205.95 160.963 1206.86 161.5C1207.78 162.021 1208.49 162.757 1209 163.708C1209.52 164.659 1209.78 165.747 1209.78 166.974ZM1203.75 162.558C1202.69 162.558 1201.81 162.88 1201.08 163.524C1200.38 164.168 1199.97 165.011 1199.84 166.054H1207.66C1207.54 165.027 1207.12 164.191 1206.4 163.547C1205.69 162.888 1204.81 162.558 1203.75 162.558ZM1212.84 160.81H1215.05V173H1212.84V160.81ZM1213.95 158.464C1213.52 158.464 1213.16 158.326 1212.87 158.05C1212.59 157.774 1212.45 157.437 1212.45 157.038C1212.45 156.639 1212.59 156.302 1212.87 156.026C1213.16 155.735 1213.52 155.589 1213.95 155.589C1214.38 155.589 1214.73 155.727 1215.01 156.003C1215.3 156.264 1215.44 156.593 1215.44 156.992C1215.44 157.406 1215.3 157.759 1215.01 158.05C1214.73 158.326 1214.38 158.464 1213.95 158.464ZM1222.76 173.138C1221.77 173.138 1220.81 173.008 1219.89 172.747C1218.97 172.471 1218.25 172.126 1217.73 171.712L1218.65 169.964C1219.18 170.347 1219.84 170.654 1220.6 170.884C1221.37 171.114 1222.14 171.229 1222.93 171.229C1224.86 171.229 1225.82 170.677 1225.82 169.573C1225.82 169.205 1225.69 168.914 1225.43 168.699C1225.17 168.484 1224.84 168.331 1224.44 168.239C1224.06 168.132 1223.51 168.017 1222.79 167.894C1221.81 167.741 1221 167.564 1220.37 167.365C1219.76 167.166 1219.23 166.828 1218.79 166.353C1218.34 165.878 1218.12 165.211 1218.12 164.352C1218.12 163.248 1218.58 162.366 1219.5 161.707C1220.42 161.032 1221.65 160.695 1223.2 160.695C1224.01 160.695 1224.83 160.795 1225.64 160.994C1226.45 161.193 1227.12 161.462 1227.64 161.799L1226.7 163.547C1225.7 162.903 1224.53 162.581 1223.18 162.581C1222.24 162.581 1221.53 162.734 1221.04 163.041C1220.55 163.348 1220.3 163.754 1220.3 164.26C1220.3 164.659 1220.44 164.973 1220.72 165.203C1220.99 165.433 1221.33 165.602 1221.73 165.709C1222.14 165.816 1222.72 165.939 1223.45 166.077C1224.44 166.246 1225.23 166.43 1225.82 166.629C1226.44 166.813 1226.96 167.135 1227.39 167.595C1227.82 168.055 1228.03 168.699 1228.03 169.527C1228.03 170.631 1227.56 171.513 1226.61 172.172C1225.67 172.816 1224.39 173.138 1222.76 173.138ZM1242.15 160.81V173H1240.06V171.16C1239.62 171.789 1239.02 172.279 1238.29 172.632C1237.57 172.969 1236.78 173.138 1235.92 173.138C1234.29 173.138 1233.01 172.693 1232.08 171.804C1231.14 170.899 1230.68 169.573 1230.68 167.825V160.81H1232.88V167.572C1232.88 168.753 1233.17 169.65 1233.73 170.263C1234.3 170.861 1235.11 171.16 1236.17 171.16C1237.34 171.16 1238.26 170.807 1238.93 170.102C1239.61 169.397 1239.94 168.4 1239.94 167.112V160.81H1242.15ZM1248.47 162.857C1248.86 162.152 1249.42 161.615 1250.17 161.247C1250.93 160.879 1251.84 160.695 1252.91 160.695V162.834C1252.79 162.819 1252.62 162.811 1252.41 162.811C1251.21 162.811 1250.27 163.171 1249.58 163.892C1248.9 164.597 1248.56 165.609 1248.56 166.928V173H1246.36V160.81H1248.47V162.857ZM1266.54 166.974C1266.54 167.143 1266.52 167.365 1266.49 167.641H1256.6C1256.74 168.714 1257.21 169.581 1258 170.24C1258.82 170.884 1259.82 171.206 1261.02 171.206C1262.47 171.206 1263.65 170.715 1264.54 169.734L1265.76 171.16C1265.2 171.804 1264.51 172.295 1263.69 172.632C1262.87 172.969 1261.96 173.138 1260.95 173.138C1259.66 173.138 1258.52 172.877 1257.52 172.356C1256.52 171.819 1255.75 171.076 1255.2 170.125C1254.66 169.174 1254.39 168.101 1254.39 166.905C1254.39 165.724 1254.65 164.659 1255.18 163.708C1255.71 162.757 1256.44 162.021 1257.36 161.5C1258.3 160.963 1259.35 160.695 1260.51 160.695C1261.68 160.695 1262.71 160.963 1263.62 161.5C1264.54 162.021 1265.25 162.757 1265.76 163.708C1266.28 164.659 1266.54 165.747 1266.54 166.974ZM1260.51 162.558C1259.45 162.558 1258.56 162.88 1257.84 163.524C1257.14 164.168 1256.72 165.011 1256.6 166.054H1264.42C1264.3 165.027 1263.88 164.191 1263.16 163.547C1262.45 162.888 1261.57 162.558 1260.51 162.558ZM1270.13 173.138C1269.7 173.138 1269.33 172.992 1269.03 172.701C1268.72 172.394 1268.57 172.011 1268.57 171.551C1268.57 171.106 1268.72 170.738 1269.03 170.447C1269.33 170.14 1269.7 169.987 1270.13 169.987C1270.56 169.987 1270.92 170.133 1271.21 170.424C1271.5 170.715 1271.65 171.091 1271.65 171.551C1271.65 172.011 1271.5 172.394 1271.19 172.701C1270.9 172.992 1270.55 173.138 1270.13 173.138Z" fill="white"/>
</g>
</g>
</g>
</g>
<defs>
<filter id="filter0_i_16_2916" x="-194" y="-233" width="2180" height="2144.61" filterUnits="userSpaceOnUse" color-interpolation-filters="sRGB">
<feFlood flood-opacity="0" result="BackgroundImageFix"/>
<feBlend mode="normal" in="SourceGraphic" in2="BackgroundImageFix" result="shape"/>
<feColorMatrix in="SourceAlpha" type="matrix" values="0 0 0 0 0 0 0 0 0 0 0 0 0 0 0 0 0 0 127 0" result="hardAlpha"/>
<feMorphology radius="24" operator="erode" in="SourceAlpha" result="effect1_innerShadow_16_2916"/>
<feOffset dx="24" dy="32"/>
<feGaussianBlur stdDeviation="92"/>
<feComposite in2="hardAlpha" operator="arithmetic" k2="-1" k3="1"/>
<feColorMatrix type="matrix" values="0 0 0 0 0.0235294 0 0 0 0 0.0313726 0 0 0 0 0.34902 0 0 0 0.75 0"/>
<feBlend mode="normal" in2="shape" result="effect1_innerShadow_16_2916"/>
</filter>
<filter id="filter1_i_16_2916" x="-194" y="5.61829" width="1694.33" height="1667.38" filterUnits="userSpaceOnUse" color-interpolation-filters="sRGB">
<feFlood flood-opacity="0" result="BackgroundImageFix"/>
<feBlend mode="normal" in="SourceGraphic" in2="BackgroundImageFix" result="shape"/>
<feColorMatrix in="SourceAlpha" type="matrix" values="0 0 0 0 0 0 0 0 0 0 0 0 0 0 0 0 0 0 127 0" result="hardAlpha"/>
<feMorphology radius="24" operator="erode" in="SourceAlpha" result="effect1_innerShadow_16_2916"/>
<feOffset dx="24" dy="32"/>
<feGaussianBlur stdDeviation="92"/>
<feComposite in2="hardAlpha" operator="arithmetic" k2="-1" k3="1"/>
<feColorMatrix type="matrix" values="0 0 0 0 0.0235294 0 0 0 0 0.0313726 0 0 0 0 0.34902 0 0 0 0.75 0"/>
<feBlend mode="normal" in2="shape" result="effect1_innerShadow_16_2916"/>
</filter>
<filter id="filter2_i_16_2916" x="-99.9987" y="206.877" width="1442.45" height="1421.53" filterUnits="userSpaceOnUse" color-interpolation-filters="sRGB">
<feFlood flood-opacity="0" result="BackgroundImageFix"/>
<feBlend mode="normal" in="SourceGraphic" in2="BackgroundImageFix" result="shape"/>
<feColorMatrix in="SourceAlpha" type="matrix" values="0 0 0 0 0 0 0 0 0 0 0 0 0 0 0 0 0 0 127 0" result="hardAlpha"/>
<feMorphology radius="24" operator="erode" in="SourceAlpha" result="effect1_innerShadow_16_2916"/>
<feOffset dx="24" dy="32"/>
<feGaussianBlur stdDeviation="92"/>
<feComposite in2="hardAlpha" operator="arithmetic" k2="-1" k3="1"/>
<feColorMatrix type="matrix" values="0 0 0 0 0.0235294 0 0 0 0 0.0313726 0 0 0 0 0.34902 0 0 0 0.75 0"/>
<feBlend mode="normal" in2="shape" result="effect1_innerShadow_16_2916"/>
</filter>
<linearGradient id="paint0_linear_16_2916" x1="0" y1="0" x2="71.1839" y2="412.984" gradientUnits="userSpaceOnUse">
<stop stop-color="#7C057B"/>
<stop offset="1" stop-color="#CD2791"/>
</linearGradient>
<clipPath id="clip0_16_2916">
<path d="M0 0H1602V260C1602 268.837 1594.84 276 1586 276H16C7.16347 276 0 268.837 0 260V0Z" fill="white"/>
</clipPath>
</defs>
</svg>
