<svg width="22" height="22" viewBox="0 0 22 22" fill="none" xmlns="http://www.w3.org/2000/svg">
<path d="M15.0754 1H18.4614C19.8636 1 20.9999 2.14585 20.9999 3.55996V6.97452C20.9999 8.38864 19.8636 9.53449 18.4614 9.53449H15.0754C13.6731 9.53449 12.5369 8.38864 12.5369 6.97452V3.55996C12.5369 2.14585 13.6731 1 15.0754 1" stroke="#ADB5BD"/>
<path d="M6.92449 0.5H3.53852V1.5H6.92449V0.5ZM9.96301 3.55996C9.96301 1.87368 8.60686 0.5 6.92449 0.5V1.5C8.04666 1.5 8.96301 2.41802 8.96301 3.55996H9.96301ZM9.96301 6.97452V3.55996H8.96301V6.97452H9.96301ZM6.92449 10.0345C8.60686 10.0345 9.96301 8.66081 9.96301 6.97452H8.96301C8.96301 8.11647 8.04666 9.03449 6.92449 9.03449V10.0345ZM3.53852 10.0345H6.92449V9.03449H3.53852V10.0345ZM0.5 6.97452C0.5 8.66081 1.85616 10.0345 3.53852 10.0345V9.03449C2.41635 9.03449 1.5 8.11647 1.5 6.97452H0.5ZM0.5 3.55996V6.97452H1.5V3.55996H0.5ZM3.53852 0.5C1.85616 0.5 0.5 1.87368 0.5 3.55996H1.5C1.5 2.41802 2.41635 1.5 3.53852 1.5V0.5ZM6.92449 11.9655H3.53852V12.9655H6.92449V11.9655ZM9.96301 15.0255C9.96301 13.3392 8.60686 11.9655 6.92449 11.9655V12.9655C8.04666 12.9655 8.96301 13.8835 8.96301 15.0255H9.96301ZM9.96301 18.44V15.0255H8.96301V18.44H9.96301ZM6.92449 21.5C8.60698 21.5 9.96301 20.1252 9.96301 18.44H8.96301C8.96301 19.5811 8.04654 20.5 6.92449 20.5V21.5ZM3.53852 21.5H6.92449V20.5H3.53852V21.5ZM0.5 18.44C0.5 20.1252 1.85604 21.5 3.53852 21.5V20.5C2.41648 20.5 1.5 19.5811 1.5 18.44H0.5ZM0.5 15.0255V18.44H1.5V15.0255H0.5ZM3.53852 11.9655C1.85616 11.9655 0.5 13.3392 0.5 15.0255H1.5C1.5 13.8835 2.41635 12.9655 3.53852 12.9655V11.9655ZM15.0755 12.9655H18.4615V11.9655H15.0755V12.9655ZM13.037 15.0255C13.037 13.8835 13.9533 12.9655 15.0755 12.9655V11.9655C13.3931 11.9655 12.037 13.3392 12.037 15.0255H13.037ZM13.037 18.44V15.0255H12.037V18.44H13.037ZM15.0755 20.5C13.9535 20.5 13.037 19.5811 13.037 18.44H12.037C12.037 20.1252 13.393 21.5 15.0755 21.5V20.5ZM18.4615 20.5H15.0755V21.5H18.4615V20.5ZM20.5 18.44C20.5 19.5811 19.5835 20.5 18.4615 20.5V21.5C20.144 21.5 21.5 20.1252 21.5 18.44H20.5ZM20.5 15.0255V18.44H21.5V15.0255H20.5ZM18.4615 12.9655C19.5836 12.9655 20.5 13.8835 20.5 15.0255H21.5C21.5 13.3392 20.1438 11.9655 18.4615 11.9655V12.9655Z" fill="#ADB5BD"/>
</svg>
