<svg width="18" height="22" viewBox="0 0 18 22" fill="none" xmlns="http://www.w3.org/2000/svg">
<path d="M15.5172 11.7795L16.5077 11.9173L15.5172 11.7795ZM15.2549 13.6645L16.2453 13.8024L15.2549 13.6645ZM2.74514 13.6645L3.73559 13.5267L2.74514 13.6645ZM2.4828 11.7795L1.49235 11.9173L2.4828 11.7795ZM6.18365 20.7368L5.79486 21.6582L6.18365 20.7368ZM3.47508 17.5603L4.41373 17.2155L3.47508 17.5603ZM14.5249 17.5603L15.4636 17.9052L14.5249 17.5603ZM11.8164 20.7368L11.4276 19.8155L11.8164 20.7368ZM2.99552 7.90541C2.94328 7.3556 2.45522 6.95224 1.90541 7.00448C1.3556 7.05672 0.952244 7.54478 1.00448 8.09459L2.99552 7.90541ZM16.9955 8.09459C17.0478 7.54478 16.6444 7.05672 16.0946 7.00448C15.5448 6.95224 15.0567 7.3556 15.0045 7.90541L16.9955 8.09459ZM17 7C17.5523 7 18 6.55228 18 6C18 5.44772 17.5523 5 17 5V7ZM1 5C0.447715 5 0 5.44772 0 6C0 6.55228 0.447715 7 1 7V5ZM6 17C6 17.5523 6.44772 18 7 18C7.55228 18 8 17.5523 8 17H6ZM8 9C8 8.44772 7.55228 8 7 8C6.44772 8 6 8.44772 6 9H8ZM10 17C10 17.5523 10.4477 18 11 18C11.5523 18 12 17.5523 12 17H10ZM12 9C12 8.44772 11.5523 8 11 8C10.4477 8 10 8.44772 10 9H12ZM13 6V7H14V6H13ZM5 6H4V7H5V6ZM14.5267 11.6417L14.2644 13.5267L16.2453 13.8024L16.5077 11.9173L14.5267 11.6417ZM3.73559 13.5267L3.47326 11.6417L1.49235 11.9173L1.75468 13.8024L3.73559 13.5267ZM9 20C7.44838 20 6.96482 19.9811 6.57243 19.8155L5.79486 21.6582C6.64976 22.0189 7.62803 22 9 22V20ZM1.75468 13.8024C2.03258 15.7992 2.18782 16.9563 2.53643 17.9052L4.41373 17.2155C4.15781 16.5189 4.02792 15.6273 3.73559 13.5267L1.75468 13.8024ZM6.57243 19.8155C5.73125 19.4605 4.91317 18.5748 4.41373 17.2155L2.53643 17.9052C3.16749 19.6228 4.3036 21.0289 5.79486 21.6582L6.57243 19.8155ZM14.2644 13.5267C13.9721 15.6273 13.8422 16.5189 13.5863 17.2155L15.4636 17.9052C15.8122 16.9563 15.9674 15.7992 16.2453 13.8024L14.2644 13.5267ZM9 22C10.372 22 11.3502 22.0189 12.2051 21.6582L11.4276 19.8155C11.0352 19.9811 10.5516 20 9 20V22ZM13.5863 17.2155C13.0868 18.5748 12.2687 19.4605 11.4276 19.8155L12.2051 21.6582C13.6964 21.0289 14.8325 19.6228 15.4636 17.9052L13.5863 17.2155ZM3.47326 11.6417C3.25084 10.0434 3.0859 8.8567 2.99552 7.90541L1.00448 8.09459C1.09994 9.09929 1.27229 10.3361 1.49235 11.9173L3.47326 11.6417ZM16.5077 11.9173C16.7277 10.3361 16.9001 9.09929 16.9955 8.09459L15.0045 7.90541C14.9141 8.8567 14.7492 10.0434 14.5267 11.6417L16.5077 11.9173ZM17 5H1V7H17V5ZM8 17V9H6V17H8ZM12 17V9H10V17H12ZM12 5V6H14V5H12ZM13 5H5V7H13V5ZM6 6V5H4V6H6ZM9 2C10.6569 2 12 3.34315 12 5H14C14 2.23858 11.7614 0 9 0V2ZM9 0C6.23858 0 4 2.23858 4 5H6C6 3.34315 7.34315 2 9 2V0Z" fill="url(#paint0_linear_456_3195)"/>
<defs>
<linearGradient id="paint0_linear_456_3195" x1="1" y1="1" x2="16.0304" y2="13.0187" gradientUnits="userSpaceOnUse">
<stop stop-color="#7C057B"/>
<stop offset="1" stop-color="#CD2791"/>
</linearGradient>
</defs>
</svg>
