<svg width="18" height="19" viewBox="0 0 18 19" fill="none" xmlns="http://www.w3.org/2000/svg">
<path d="M6.53118 16.0199L6.16728 15.0884L6.53118 16.0199ZM2.47478 16.7988L1.97478 17.6648H1.97478L2.47478 16.7988ZM1.12116 12.8964L0.132565 13.047L1.12116 12.8964ZM1.61146 10.2941L2.47749 10.7941L1.61146 10.2941ZM1.02731 11.5314L0.0446032 11.3462H0.0446032L1.02731 11.5314ZM8.53967 14.2941L9.40569 14.7941L8.53967 14.2941ZM7.76024 15.4186L8.41194 16.1771H8.41194L7.76024 15.4186ZM5.4099 3.71503L4.54387 3.21503L5.4099 3.71503ZM16.4099 18.2509C16.9622 18.2509 17.4099 17.8032 17.4099 17.2509C17.4099 16.6986 16.9622 16.2509 16.4099 16.2509V18.2509ZM10.4099 16.2509C9.85761 16.2509 9.4099 16.6986 9.4099 17.2509C9.4099 17.8032 9.85761 18.2509 10.4099 18.2509V16.2509ZM11.4721 7.21503L7.67364 13.7941L9.40569 14.7941L13.2041 8.21503L11.4721 7.21503ZM2.47749 10.7941L6.27593 4.21503L4.54387 3.21503L0.745437 9.79412L2.47749 10.7941ZM6.16728 15.0884C5.06353 15.5196 4.33651 15.801 3.78167 15.9307C3.25296 16.0542 3.07497 15.9906 2.97478 15.9328L1.97478 17.6648C2.70707 18.0876 3.48263 18.0544 4.23668 17.8782C4.9646 17.7082 5.84955 17.3598 6.89509 16.9513L6.16728 15.0884ZM0.132565 13.047C0.301578 14.1567 0.442341 15.0972 0.659018 15.8127C0.883475 16.5538 1.2425 17.242 1.97478 17.6648L2.97478 15.9328C2.8746 15.8749 2.73053 15.7526 2.57316 15.2329C2.408 14.6876 2.28819 13.9173 2.10976 12.7458L0.132565 13.047ZM0.745437 9.79412C0.432139 10.3368 0.146483 10.8055 0.0446032 11.3462L2.01002 11.7165C2.03427 11.5878 2.09601 11.4549 2.47749 10.7941L0.745437 9.79412ZM2.10976 12.7458C1.99489 11.9916 1.98577 11.8452 2.01002 11.7165L0.0446032 11.3462C-0.0572766 11.887 0.03822 12.4275 0.132565 13.047L2.10976 12.7458ZM7.67364 13.7941C7.29216 14.4549 7.20787 14.5748 7.10854 14.6602L8.41194 16.1771C8.82929 15.8185 9.09239 15.3368 9.40569 14.7941L7.67364 13.7941ZM6.89509 16.9513C7.47872 16.7233 7.99459 16.5357 8.41194 16.1771L7.10854 14.6602C7.0092 14.7455 6.87793 14.8108 6.16728 15.0884L6.89509 16.9513ZM10.374 3.11695C11.215 3.60249 11.7575 3.91819 12.127 4.20329C12.4735 4.47066 12.5441 4.62017 12.572 4.72416L14.5038 4.20652C14.3173 3.51031 13.8725 3.02402 13.3489 2.61993C12.8482 2.23358 12.166 1.84217 11.374 1.3849L10.374 3.11695ZM13.2041 8.21503C13.6614 7.42301 14.0565 6.74294 14.2969 6.15803C14.5483 5.54627 14.6904 4.90273 14.5038 4.20652L12.572 4.72416C12.5998 4.82815 12.6134 4.99295 12.447 5.39774C12.2696 5.82937 11.9576 6.37405 11.4721 7.21503L13.2041 8.21503ZM11.374 1.3849C10.582 0.927632 9.90192 0.532541 9.31701 0.292141C8.70525 0.0407076 8.06171 -0.101349 7.36549 0.0852L7.88313 2.01705C7.98712 1.98919 8.15193 1.97563 8.55671 2.14199C8.98835 2.3194 9.53302 2.63141 10.374 3.11695L11.374 1.3849ZM6.27593 4.21503C6.76147 3.37405 7.07716 2.8315 7.36226 2.46205C7.62964 2.11557 7.77914 2.04492 7.88313 2.01705L7.36549 0.0852C6.66928 0.271749 6.18299 0.716544 5.77891 1.24017C5.39256 1.74082 5.00114 2.42301 4.54387 3.21503L6.27593 4.21503ZM12.8381 6.849L5.9099 2.849L4.9099 4.58105L11.8381 8.58105L12.8381 6.849ZM16.4099 16.2509H10.4099V18.2509H16.4099V16.2509Z" fill="#F59300"/>
</svg>
