<svg width="20" height="18" viewBox="0 0 20 18" fill="none" xmlns="http://www.w3.org/2000/svg">
<path d="M3.63604 5.38127L3.10901 5.91489L3.63604 5.38127ZM1.9 3.66667L2.42703 3.13305L2.41263 3.11883L2.39748 3.10541L1.9 3.66667ZM18.1 3.66667L18.627 4.20028V4.20028L18.1 3.66667ZM16.364 5.38128L16.891 5.91489L16.364 5.38128ZM2.85497 16.1512L3.29222 15.5418L2.85497 16.1512ZM1.85942 15.1679L2.46357 14.7235L1.85942 15.1679ZM18.1406 15.1679L17.5364 14.7235L18.1406 15.1679ZM17.145 16.1512L16.7078 15.5418L17.145 16.1512ZM17.145 1.84881L16.7078 2.45816L17.145 1.84881ZM18.1406 2.83207L17.5364 3.27649L18.1406 2.83207ZM2.85497 1.84881L3.29222 2.45816L2.85497 1.84881ZM1.85942 2.83207L1.25528 2.38764L1.85942 2.83207ZM1.54724 3.35399L0.870616 3.03046L1.54724 3.35399ZM18.4411 3.3298L19.1151 3.00094L18.4411 3.3298ZM4.16307 4.84766L2.42703 3.13305L1.37297 4.20028L3.10901 5.91489L4.16307 4.84766ZM17.573 3.13305L15.8369 4.84766L16.891 5.91489L18.627 4.20028L17.573 3.13305ZM3.10901 5.91489C4.59399 7.38153 5.76014 8.53551 6.79267 9.31358C7.84288 10.105 8.84095 10.5757 10 10.5757V9.07572C9.29509 9.07572 8.61117 8.80572 7.6954 8.11563C6.76194 7.41222 5.67809 6.34398 4.16307 4.84766L3.10901 5.91489ZM15.8369 4.84766C14.3219 6.34398 13.2381 7.41222 12.3046 8.11563C11.3888 8.80572 10.7049 9.07572 10 9.07572V10.5757C11.159 10.5757 12.1571 10.105 13.2073 9.31358C14.2399 8.53552 15.406 7.38154 16.891 5.91489L15.8369 4.84766ZM9.1 1.75H10.9V0.25H9.1V1.75ZM10.9 16.25H9.1V17.75H10.9V16.25ZM9.1 16.25C7.39612 16.25 6.17771 16.249 5.23533 16.1482C4.30645 16.0488 3.7349 15.8595 3.29222 15.5418L2.41771 16.7605C3.15792 17.2917 4.02152 17.5268 5.07574 17.6396C6.11646 17.751 7.42912 17.75 9.1 17.75V16.25ZM0.25 9C0.25 10.6496 0.248945 11.9479 0.3619 12.9776C0.476456 14.0218 0.715571 14.8787 1.25528 15.6124L2.46357 14.7235C2.14385 14.2889 1.95326 13.7283 1.85296 12.814C1.75106 11.8851 1.75 10.6835 1.75 9H0.25ZM3.29222 15.5418C2.97388 15.3134 2.69431 15.0372 2.46357 14.7235L1.25528 15.6124C1.57965 16.0533 1.972 16.4407 2.41771 16.7605L3.29222 15.5418ZM18.25 9C18.25 10.6835 18.2489 11.8851 18.147 12.814C18.0467 13.7283 17.8561 14.2889 17.5364 14.7235L18.7447 15.6124C19.2844 14.8787 19.5235 14.0218 19.6381 12.9776C19.7511 11.9479 19.75 10.6496 19.75 9H18.25ZM10.9 17.75C12.5709 17.75 13.8835 17.751 14.9243 17.6396C15.9785 17.5268 16.8421 17.2917 17.5823 16.7605L16.7078 15.5418C16.2651 15.8595 15.6936 16.0488 14.7647 16.1482C13.8223 16.249 12.6039 16.25 10.9 16.25V17.75ZM17.5364 14.7235C17.3057 15.0372 17.0261 15.3134 16.7078 15.5418L17.5823 16.7605C18.028 16.4407 18.4203 16.0533 18.7447 15.6124L17.5364 14.7235ZM10.9 1.75C12.6039 1.75 13.8223 1.751 14.7647 1.85184C15.6936 1.95124 16.2651 2.14051 16.7078 2.45816L17.5823 1.23946C16.8421 0.708306 15.9785 0.473166 14.9243 0.360359C13.8835 0.248995 12.5709 0.25 10.9 0.25V1.75ZM16.7078 2.45816C17.0261 2.6866 17.3057 2.96282 17.5364 3.27649L18.7447 2.38764C18.4203 1.94669 18.028 1.55929 17.5823 1.23946L16.7078 2.45816ZM9.1 0.25C7.42912 0.25 6.11646 0.248995 5.07574 0.360359C4.02152 0.473166 3.15792 0.708306 2.41771 1.23946L3.29222 2.45816C3.7349 2.14051 4.30645 1.95124 5.23533 1.85184C6.17771 1.751 7.39612 1.75 9.1 1.75V0.25ZM2.41771 1.23946C1.972 1.55929 1.57965 1.94669 1.25528 2.38764L2.46357 3.27649C2.69431 2.96282 2.97388 2.6866 3.29222 2.45816L2.41771 1.23946ZM1.75 9C1.75 7.55554 1.75048 6.4626 1.8163 5.58707C1.88198 4.71322 2.00917 4.12654 2.22387 3.67753L0.870616 3.03046C0.538073 3.72591 0.391638 4.52848 0.320515 5.47464C0.249518 6.41912 0.25 7.57695 0.25 9H1.75ZM2.22387 3.67753C2.29295 3.53306 2.37216 3.40075 2.46357 3.27649L1.25528 2.38764C1.10659 2.58977 0.979239 2.80329 0.870616 3.03046L2.22387 3.67753ZM2.39748 3.10541L2.04472 2.79273L1.04976 3.91525L1.40252 4.22793L2.39748 3.10541ZM19.75 9C19.75 7.56705 19.7505 6.40286 19.6779 5.45439C19.6052 4.50397 19.4555 3.69857 19.1151 3.00094L17.767 3.65866C17.9856 4.10666 18.1153 4.69247 18.1823 5.5688C18.2495 6.44708 18.25 7.54518 18.25 9H19.75ZM19.1151 3.00094C19.0096 2.78469 18.8869 2.58092 18.7447 2.38764L17.5364 3.27649C17.6239 3.39539 17.7001 3.52159 17.767 3.65866L19.1151 3.00094ZM18.627 4.20028L18.9681 3.86342L17.914 2.79619L17.573 3.13305L18.627 4.20028Z" fill="#ADB5BD"/>
</svg>
