<svg width="21" height="16" viewBox="0 0 21 16" fill="none" xmlns="http://www.w3.org/2000/svg">
<path d="M1.25192 8L0.508376 8.09823L0.514621 8.1455L0.526801 8.1916L1.25192 8ZM7.19223 1.41035L6.86737 2.08634L7.19223 1.41035ZM7.68329 1.64635L8.00816 0.970357V0.970357L7.68329 1.64635ZM9.53979 2.41942L9.372 3.15041L9.53979 2.41942ZM13.3167 1.64635L12.9918 0.970357V0.970357L13.3167 1.64635ZM11.4602 2.41942L11.628 3.15041L11.4602 2.41942ZM13.7923 13.5377L14.4369 13.1544V13.1544L13.7923 13.5377ZM7.0733 13.7638L6.42862 13.3805L7.0733 13.7638ZM2.58568 13.0477L3.31079 12.8561L2.58568 13.0477ZM19.1845 12.2662L18.4409 12.1679L19.1845 12.2662ZM19.9549 6.43445L20.6985 6.53268L19.9549 6.43445ZM7.41952 13.1815L8.06419 13.5647H8.06419L7.41952 13.1815ZM13.5805 13.1815L12.9358 13.5647L12.9358 13.5647L13.5805 13.1815ZM13.8078 1.41035L14.1326 2.08634L13.8078 1.41035ZM1.04508 6.43444L0.301542 6.53268L1.04508 6.43444ZM4.02634 6.25C3.61213 6.25 3.27634 6.58579 3.27634 7C3.27634 7.41421 3.61213 7.75 4.02634 7.75V6.25ZM7.72557 7.75C8.13979 7.75 8.47557 7.41421 8.47557 7C8.47557 6.58579 8.13979 6.25 7.72557 6.25V7.75ZM5.12596 9C5.12596 9.41421 5.46174 9.75 5.87596 9.75C6.29017 9.75 6.62596 9.41421 6.62596 9H5.12596ZM6.62596 5C6.62596 4.58579 6.29017 4.25 5.87596 4.25C5.46174 4.25 5.12596 4.58579 5.12596 5H6.62596ZM3.31079 12.8561L1.97703 7.8084L0.526801 8.1916L1.86056 13.2393L3.31079 12.8561ZM1.99545 7.90177L1.78862 6.33621L0.301542 6.53268L0.508376 8.09823L1.99545 7.90177ZM6.77484 12.7982L6.42862 13.3805L7.71797 14.1471L8.06419 13.5647L6.77484 12.7982ZM14.4369 13.1544L14.2252 12.7982L12.9358 13.5647L13.1476 13.921L14.4369 13.1544ZM6.86737 2.08634L7.35842 2.32234L8.00816 0.970357L7.5171 0.734365L6.86737 2.08634ZM13.6416 2.32234L14.1326 2.08634L13.4829 0.734365L12.9918 0.970357L13.6416 2.32234ZM5.40395 1.75C5.90596 1.75 6.4043 1.8638 6.86737 2.08634L7.5171 0.734365C6.85421 0.415791 6.1341 0.25 5.40395 0.25V1.75ZM7.35842 2.32234C8.24865 2.75016 8.79669 3.01835 9.372 3.15041L9.70759 1.68843C9.33386 1.60265 8.96058 1.42807 8.00816 0.970357L7.35842 2.32234ZM12.9918 0.970357C12.0394 1.42807 11.6661 1.60265 11.2924 1.68843L11.628 3.15041C12.2033 3.01835 12.7513 2.75016 13.6416 2.32234L12.9918 0.970357ZM9.372 3.15041C10.1155 3.32108 10.8845 3.32108 11.628 3.15041L11.2924 1.68843C10.7698 1.80841 10.2302 1.80841 9.70759 1.68843L9.372 3.15041ZM16.2693 14.25C15.5501 14.25 14.8532 13.8546 14.4369 13.1544L13.1476 13.921C13.815 15.0436 14.9846 15.75 16.2693 15.75V14.25ZM6.42862 13.3805C6.09617 13.9397 5.54356 14.25 4.97928 14.25V15.75C6.10909 15.75 7.13433 15.1288 7.71797 14.1471L6.42862 13.3805ZM1.86056 13.2393C2.24369 14.6893 3.49274 15.75 4.97928 15.75V14.25C4.24289 14.25 3.53835 13.7173 3.31079 12.8561L1.86056 13.2393ZM18.4409 12.1679C18.277 13.4087 17.3147 14.25 16.2693 14.25V15.75C18.1548 15.75 19.6774 14.2609 19.928 12.3644L18.4409 12.1679ZM20.6985 6.53268C21.1279 3.28207 18.7938 0.25 15.596 0.25V1.75C17.7573 1.75 19.5398 3.8503 19.2114 6.33621L20.6985 6.53268ZM8.06419 13.5647C9.21502 11.629 11.785 11.629 12.9358 13.5647L14.2252 12.7982C12.4929 9.88452 8.50708 9.88451 6.77484 12.7982L8.06419 13.5647ZM14.1326 2.08634C14.5957 1.8638 15.094 1.75 15.596 1.75V0.25C14.8659 0.25 14.1458 0.415791 13.4829 0.734365L14.1326 2.08634ZM1.78862 6.33621C1.46019 3.8503 3.24269 1.75 5.40395 1.75V0.25C2.20618 0.25 -0.127914 3.28207 0.301542 6.53268L1.78862 6.33621ZM6.62596 9V5H5.12596V9H6.62596ZM19.2114 6.33621L18.4409 12.1679L19.928 12.3644L20.6985 6.53268L19.2114 6.33621ZM4.02634 7.75H5.87596V6.25H4.02634V7.75ZM5.87596 7.75H7.72557V6.25H5.87596V7.75Z" fill="#ADB5BD"/>
</svg>
