<svg width="133" height="135" viewBox="0 0 133 135" fill="none" xmlns="http://www.w3.org/2000/svg">
<g filter="url(#filter0_ii_12_2867)">
<path d="M3.42977 132.11H16.9298L45.9298 55.1103L42.4298 132.11H66.4298L98.4298 55.1103L87.4298 132.11H112.93L129.93 4.61035H105.43L67.9298 94.1103L71.4298 3.61035C71.4298 3.61035 65.9853 2.3435 62.4298 2.11035C60.0916 1.95703 58.7687 1.96954 56.4298 2.11035C52.6806 2.33605 50.5919 2.77609 46.9298 3.61035C43.5561 4.37888 41.642 4.82455 38.4298 6.11035C34.292 7.7666 32.6572 8.16685 28.9297 10.6104C25.435 12.9014 23.1669 14.4678 19.9298 17.1104C16.9401 19.5509 15.0253 21.6988 12.4628 24.5733L12.4298 24.6103C9.90688 27.4404 8.7016 29.2585 6.92977 32.6103C5.16737 35.9443 4.08077 37.8958 3.42977 41.6103C2.85674 44.88 2.85674 46.8407 3.42977 50.1103C4.08077 53.8249 4.35664 56.3535 6.92977 59.1103C8.66119 60.9654 9.87829 61.4967 12.4047 62.5994L12.4298 62.6103C16.1879 64.2507 22.9298 63.6103 22.9298 63.6103C22.9298 63.6103 21.7681 61.5489 20.9298 59.6103C19.0697 55.309 19.4276 51.7697 19.9298 47.1103C20.4881 41.9301 20.8395 38.8829 22.9298 34.1103C25.0156 29.3478 26.7468 26.7802 30.4298 23.1103C33.8065 19.7456 36.0577 18.01 40.4298 16.1103C42.8656 15.052 46.9298 14.1103 46.9298 14.1103L3.42977 132.11Z" stroke="white" stroke-width="4"/>
</g>
<defs>
<filter id="filter0_ii_12_2867" x="0.0609131" y="-0.5" width="132.653" height="135.11" filterUnits="userSpaceOnUse" color-interpolation-filters="sRGB">
<feFlood flood-opacity="0" result="BackgroundImageFix"/>
<feBlend mode="normal" in="SourceGraphic" in2="BackgroundImageFix" result="shape"/>
<feColorMatrix in="SourceAlpha" type="matrix" values="0 0 0 0 0 0 0 0 0 0 0 0 0 0 0 0 0 0 127 0" result="hardAlpha"/>
<feOffset dx="-0.5" dy="-0.5"/>
<feGaussianBlur stdDeviation="0.25"/>
<feComposite in2="hardAlpha" operator="arithmetic" k2="-1" k3="1"/>
<feColorMatrix type="matrix" values="0 0 0 0 1 0 0 0 0 1 0 0 0 0 1 0 0 0 0.4 0"/>
<feBlend mode="normal" in2="shape" result="effect1_innerShadow_12_2867"/>
<feColorMatrix in="SourceAlpha" type="matrix" values="0 0 0 0 0 0 0 0 0 0 0 0 0 0 0 0 0 0 127 0" result="hardAlpha"/>
<feOffset dx="0.5" dy="0.5"/>
<feGaussianBlur stdDeviation="0.25"/>
<feComposite in2="hardAlpha" operator="arithmetic" k2="-1" k3="1"/>
<feColorMatrix type="matrix" values="0 0 0 0 0.127604 0 0 0 0 0.267969 0 0 0 0 0.408333 0 0 0 0.4 0"/>
<feBlend mode="normal" in2="effect1_innerShadow_12_2867" result="effect2_innerShadow_12_2867"/>
</filter>
</defs>
</svg>
