<svg width="140" height="140" viewBox="0 0 140 140" fill="none" xmlns="http://www.w3.org/2000/svg">
<circle cx="70" cy="70" r="70" fill="url(#paint0_linear_12_2896)"/>
<path d="M81.7857 50.3158C81.7857 56.8464 76.5041 62.1316 70 62.1316V67.1316C79.2754 67.1316 86.7857 59.5979 86.7857 50.3158H81.7857ZM70 62.1316C63.4959 62.1316 58.2143 56.8464 58.2143 50.3158H53.2143C53.2143 59.5979 60.7246 67.1316 70 67.1316V62.1316ZM58.2143 50.3158C58.2143 43.7851 63.4959 38.5 70 38.5V33.5C60.7246 33.5 53.2143 41.0336 53.2143 50.3158H58.2143ZM70 38.5C76.5041 38.5 81.7857 43.7851 81.7857 50.3158H86.7857C86.7857 41.0336 79.2754 33.5 70 33.5V38.5ZM59.2857 77.8684H80.7143V72.8684H59.2857V77.8684ZM80.7143 101.5H59.2857V106.5H80.7143V101.5ZM59.2857 101.5C52.7816 101.5 47.5 96.2148 47.5 89.6842H42.5C42.5 98.9664 50.0103 106.5 59.2857 106.5V101.5ZM92.5 89.6842C92.5 96.2148 87.2184 101.5 80.7143 101.5V106.5C89.9897 106.5 97.5 98.9664 97.5 89.6842H92.5ZM80.7143 77.8684C87.2184 77.8684 92.5 83.1536 92.5 89.6842H97.5C97.5 80.4021 89.9897 72.8684 80.7143 72.8684V77.8684ZM59.2857 72.8684C50.0103 72.8684 42.5 80.4021 42.5 89.6842H47.5C47.5 83.1536 52.7816 77.8684 59.2857 77.8684V72.8684Z" fill="white"/>
<defs>
<linearGradient id="paint0_linear_12_2896" x1="0" y1="0" x2="107.854" y2="107.804" gradientUnits="userSpaceOnUse">
<stop stop-color="#7C057B"/>
<stop offset="1" stop-color="#CD2791"/>
</linearGradient>
</defs>
</svg>
