<svg width="45" height="45" viewBox="0 0 45 45" fill="none" xmlns="http://www.w3.org/2000/svg">
<circle cx="22.5" cy="22.5" r="22.5" fill="url(#paint0_linear_79_2969)"/>
<path d="M26.0918 16.1728C26.0918 18.1638 24.4817 19.7743 22.5 19.7743V21.7743C25.5903 21.7743 28.0918 19.2644 28.0918 16.1728H26.0918ZM22.5 19.7743C20.5183 19.7743 18.9082 18.1638 18.9082 16.1728H16.9082C16.9082 19.2644 19.4097 21.7743 22.5 21.7743V19.7743ZM18.9082 16.1728C18.9082 14.1818 20.5183 12.5713 22.5 12.5713V10.5713C19.4097 10.5713 16.9082 13.0812 16.9082 16.1728H18.9082ZM22.5 12.5713C24.4817 12.5713 26.0918 14.1818 26.0918 16.1728H28.0918C28.0918 13.0812 25.5903 10.5713 22.5 10.5713V12.5713ZM19.0561 25.2254H25.9439V23.2254H19.0561V25.2254ZM25.9439 32.4284H19.0561V34.4284H25.9439V32.4284ZM19.0561 32.4284C17.0744 32.4284 15.4643 30.818 15.4643 28.8269H13.4643C13.4643 31.9186 15.9659 34.4284 19.0561 34.4284V32.4284ZM29.5357 28.8269C29.5357 30.818 27.9256 32.4284 25.9439 32.4284V34.4284C29.0342 34.4284 31.5357 31.9186 31.5357 28.8269H29.5357ZM25.9439 25.2254C27.9256 25.2254 29.5357 26.8359 29.5357 28.8269H31.5357C31.5357 25.7353 29.0342 23.2254 25.9439 23.2254V25.2254ZM19.0561 23.2254C15.9659 23.2254 13.4643 25.7353 13.4643 28.8269H15.4643C15.4643 26.8359 17.0744 25.2254 19.0561 25.2254V23.2254Z" fill="white"/>
<defs>
<linearGradient id="paint0_linear_79_2969" x1="0" y1="0" x2="34.6674" y2="34.6513" gradientUnits="userSpaceOnUse">
<stop stop-color="#7C057B"/>
<stop offset="1" stop-color="#CD2791"/>
</linearGradient>
</defs>
</svg>
