<svg width="28" height="28" viewBox="0 0 28 28" fill="none" xmlns="http://www.w3.org/2000/svg">
<path d="M11.1111 27V26V27ZM9.66667 27V28V27ZM1 18.3333L2 18.3333L1 18.3333ZM1 9.66667H3.57628e-07H1ZM9.66667 1V0V1ZM11.1111 1V2V1ZM1.08892 7.09242L0.101229 6.93598L0.101229 6.93598L1.08892 7.09242ZM7.09242 1.08892L7.24885 2.07661L7.09242 1.08892ZM7.09242 26.9111L6.93598 27.8988H6.93598L7.09242 26.9111ZM1.08892 20.9076L0.101228 21.064L0.101228 21.064L1.08892 20.9076ZM16.045 26.3556C16.4866 26.024 16.5757 25.3971 16.244 24.9555C15.9123 24.5139 15.2855 24.4248 14.8439 24.7565L16.045 26.3556ZM14.8439 3.24348C15.2855 3.57517 15.9123 3.48608 16.244 3.04449C16.5757 2.60291 16.4866 1.97604 16.045 1.64435L14.8439 3.24348ZM6.77778 13C6.22549 13 5.77778 13.4477 5.77778 14C5.77778 14.5523 6.22549 15 6.77778 15V13ZM25.5556 14V15V14ZM21.8435 7.43864C21.4108 7.09551 20.7818 7.16817 20.4386 7.60093C20.0955 8.03369 20.1682 8.66267 20.6009 9.0058L21.8435 7.43864ZM23.7687 10.2413L24.39 9.45776L23.7687 10.2413ZM23.7687 17.7587L24.39 18.5422V18.5422L23.7687 17.7587ZM20.6009 18.9942C20.1682 19.3373 20.0955 19.9663 20.4386 20.3991C20.7818 20.8318 21.4108 20.9045 21.8435 20.5614L20.6009 18.9942ZM26.9713 13.6379L27.9588 13.4806V13.4806L26.9713 13.6379ZM26.9713 14.3621L27.9588 14.5194V14.5194L26.9713 14.3621ZM27 14L28 14L27 14ZM11.1111 26H9.66667V28H11.1111V26ZM2 18.3333L2 9.66667H3.57628e-07L0 18.3333L2 18.3333ZM9.66667 2L11.1111 2V5.96046e-08L9.66667 0V2ZM2 9.66667C2 8.28656 2.0031 7.71293 2.07661 7.24885L0.101229 6.93598C-0.0031029 7.59471 4.17233e-07 8.36298 3.57628e-07 9.66667H2ZM9.66667 0C8.36298 0 7.59471 -0.00310349 6.93598 0.101229L7.24885 2.07661C7.71293 2.0031 8.28656 2 9.66667 2V0ZM2.07661 7.24885C2.4983 4.58641 4.58641 2.4983 7.24885 2.07661L6.93598 0.101229C3.41776 0.658461 0.658462 3.41775 0.101229 6.93598L2.07661 7.24885ZM9.66667 26C8.28656 26 7.71293 25.9969 7.24885 25.9234L6.93598 27.8988C7.59471 28.0031 8.36298 28 9.66667 28V26ZM0 18.3333C0 19.637 -0.00310349 20.4053 0.101228 21.064L2.07661 20.7511C2.0031 20.2871 2 19.7134 2 18.3333L0 18.3333ZM7.24885 25.9234C4.58641 25.5017 2.49829 23.4136 2.0766 20.7511L0.101228 21.064C0.658461 24.5822 3.41776 27.3415 6.93598 27.8988L7.24885 25.9234ZM11.1111 28C12.961 28 14.6707 27.3879 16.045 26.3556L14.8439 24.7565C13.804 25.5376 12.513 26 11.1111 26L11.1111 28ZM11.1111 2C12.513 2 13.804 2.46243 14.8439 3.24348L16.045 1.64435C14.6707 0.612079 12.961 1.19209e-07 11.1111 5.96046e-08V2ZM6.77778 15L25.5556 15V13L6.77778 13V15ZM20.6009 9.0058L23.1474 11.0249L24.39 9.45776L21.8435 7.43864L20.6009 9.0058ZM23.1474 16.9751L20.6009 18.9942L21.8435 20.5614L24.39 18.5422L23.1474 16.9751ZM23.1474 11.0249C24.182 11.8452 24.8897 12.4083 25.3672 12.8839C25.8402 13.3552 25.9552 13.6159 25.9837 13.7953L27.9588 13.4806C27.831 12.6786 27.3601 12.0462 26.7787 11.467C26.2017 10.8922 25.3863 10.2477 24.39 9.45776L23.1474 11.0249ZM24.39 18.5422C25.3863 17.7523 26.2017 17.1078 26.7787 16.533C27.3601 15.9538 27.831 15.3214 27.9588 14.5194L25.9837 14.2047C25.9552 14.3841 25.8402 14.6448 25.3672 15.1161C24.8897 15.5917 24.182 16.1548 23.1474 16.9751L24.39 18.5422ZM25.9837 13.7953C25.9946 13.8636 26 13.932 26 14L28 14C28 13.8262 27.9862 13.6526 27.9588 13.4806L25.9837 13.7953ZM26 14C26 14.068 25.9946 14.1364 25.9837 14.2047L27.9588 14.5194C27.9862 14.3474 28 14.1738 28 14L26 14ZM25.5556 15H27V13H25.5556V15Z" fill="#31456A"/>
</svg>
