<svg width="40" height="41" viewBox="0 0 40 41" fill="none" xmlns="http://www.w3.org/2000/svg">
<path d="M0.135436 41H4.38976L13.5287 16.736L12.4257 41H19.9889L30.0732 16.736L26.6068 41H34.6427L40 0.822565H32.2792L20.4616 29.0255L21.5646 0.507448C21.5646 0.507448 19.8489 0.108242 18.7284 0.034772C17.9916 -0.0135416 17.5747 -0.00959778 16.8376 0.034772C15.6561 0.105894 14.9979 0.244559 13.8438 0.507448C12.7807 0.749626 12.1775 0.890063 11.1652 1.29524C9.8612 1.81716 9.34601 1.94328 8.17137 2.71327C7.07004 3.4352 6.3553 3.92881 5.33516 4.76153C4.39302 5.53059 3.7896 6.20743 2.98205 7.11325L2.97165 7.12491C2.1766 8.0167 1.79677 8.58963 1.23841 9.64585C0.683013 10.6964 0.340588 11.3114 0.135436 12.4819C-0.0451452 13.5122 -0.0451452 14.1301 0.135436 15.1604C0.340588 16.3309 0.427523 17.1277 1.23841 17.9965C1.78404 18.581 2.16759 18.7484 2.96376 19.0959L2.97165 19.0994C4.15596 19.6163 6.28057 19.4145 6.28057 19.4145C6.28057 19.4145 5.91448 18.7649 5.6503 18.154C5.06413 16.7986 5.1769 15.6833 5.33516 14.215C5.51112 12.5827 5.62185 11.6224 6.28057 10.1185C6.93789 8.61777 7.48345 7.80868 8.64408 6.65223C9.7082 5.59194 10.4176 5.04501 11.7954 4.44641C12.5631 4.11291 13.8438 3.81618 13.8438 3.81618L0.135436 41Z" fill="#31456A"/>
</svg>
