<svg width="45" height="45" viewBox="0 0 45 45" fill="none" xmlns="http://www.w3.org/2000/svg">
<circle cx="22.5" cy="22.5" r="22.5" fill="url(#paint0_linear_79_2965)"/>
<path d="M31 23C31.5523 23 32 22.5523 32 22C32 21.4477 31.5523 21 31 21V23ZM15 21C14.4477 21 14 21.4477 14 22C14 22.5523 14.4477 23 15 23V21ZM18.2961 27.7103C18.6883 28.099 19.3215 28.0962 19.7103 27.7039C20.099 27.3117 20.0962 26.6785 19.7039 26.2897L18.2961 27.7103ZM17.237 25.2527L17.941 24.5424L17.237 25.2527ZM17.237 18.7473L16.5331 18.0371L17.237 18.7473ZM19.7039 17.7103C20.0962 17.3215 20.099 16.6883 19.7103 16.2961C19.3215 15.9038 18.6883 15.901 18.2961 16.2897L19.7039 17.7103ZM15.0199 22.3133L14.0279 22.4398L14.0279 22.4398L15.0199 22.3133ZM15.0199 21.6867L14.0279 21.5602L14.0279 21.5602L15.0199 21.6867ZM31 21H15V23H31V21ZM19.7039 26.2897L17.941 24.5424L16.5331 25.9629L18.2961 27.7103L19.7039 26.2897ZM17.941 19.4576L19.7039 17.7103L18.2961 16.2897L16.5331 18.0371L17.941 19.4576ZM17.941 24.5424C17.2213 23.8292 16.7426 23.3526 16.4215 22.9528C16.1131 22.5687 16.0331 22.3535 16.0119 22.1869L14.0279 22.4398C14.1149 23.1224 14.4406 23.6802 14.8621 24.2051C15.271 24.7142 15.8468 25.2828 16.5331 25.9629L17.941 24.5424ZM16.5331 18.0371C15.8468 18.7172 15.271 19.2858 14.8621 19.7949C14.4406 20.3198 14.1149 20.8776 14.0279 21.5602L16.0119 21.8131C16.0331 21.6465 16.1131 21.4313 16.4215 21.0472C16.7426 20.6474 17.2213 20.1708 17.941 19.4576L16.5331 18.0371ZM16.0119 22.1869C15.996 22.0628 15.996 21.9372 16.0119 21.8131L14.0279 21.5602C13.9907 21.8522 13.9907 22.1478 14.0279 22.4398L16.0119 22.1869Z" fill="white"/>
<defs>
<linearGradient id="paint0_linear_79_2965" x1="0" y1="0" x2="34.6674" y2="34.6513" gradientUnits="userSpaceOnUse">
<stop stop-color="#7C057B"/>
<stop offset="1" stop-color="#CD2791"/>
</linearGradient>
</defs>
</svg>
