<svg width="22" height="22" viewBox="0 0 22 22" fill="none" xmlns="http://www.w3.org/2000/svg">
<path d="M8.35181 7.80519L8.97155 8.22759L8.35181 7.80519ZM12.4211 8.27915L12.8141 7.64042L12.4211 8.27915ZM9.64955 7.00652L9.56605 6.26118L9.64955 7.00652ZM9.64955 14.9935L9.56605 15.7388L9.64955 14.9935ZM8.35181 14.1948L7.73207 14.6172L8.35181 14.1948ZM14.8407 11.7987L14.1487 11.5096L14.8407 11.7987ZM14.8407 10.2013L14.1487 10.4904L14.8407 10.2013ZM20.25 11C20.25 16.1086 16.1086 20.25 11 20.25V21.75C16.9371 21.75 21.75 16.9371 21.75 11H20.25ZM11 20.25C5.89137 20.25 1.75 16.1086 1.75 11H0.25C0.25 16.9371 5.06294 21.75 11 21.75V20.25ZM1.75 11C1.75 5.89137 5.89137 1.75 11 1.75V0.25C5.06294 0.25 0.25 5.06294 0.25 11H1.75ZM11 1.75C16.1086 1.75 20.25 5.89137 20.25 11H21.75C21.75 5.06294 16.9371 0.25 11 0.25V1.75ZM8.75 11C8.75 10.0932 8.75066 9.46196 8.79121 8.9908C8.83227 8.51375 8.90747 8.32161 8.97155 8.22759L7.73207 7.38278C7.44434 7.80493 7.34363 8.31731 7.29674 8.86218C7.24934 9.41295 7.25 10.121 7.25 11H8.75ZM12.8141 7.64042C12.1019 7.20207 11.5221 6.84429 11.0453 6.60993C10.5738 6.37812 10.0828 6.20329 9.56605 6.26118L9.73306 7.75186C9.81155 7.74306 9.9809 7.7581 10.3836 7.95606C10.7811 8.15147 11.2894 8.46335 12.028 8.91788L12.8141 7.64042ZM8.97155 8.22759C9.16131 7.94918 9.44154 7.78452 9.73306 7.75186L9.56605 6.26118C8.81915 6.34486 8.15604 6.76076 7.73207 7.38278L8.97155 8.22759ZM12.028 13.0821C11.2894 13.5366 10.7811 13.8485 10.3836 14.0439C9.9809 14.2419 9.81155 14.2569 9.73306 14.2481L9.56605 15.7388C10.0828 15.7967 10.5738 15.6219 11.0453 15.3901C11.5221 15.1557 12.1019 14.7979 12.8141 14.3596L12.028 13.0821ZM7.25 11C7.25 11.879 7.24934 12.587 7.29674 13.1378C7.34363 13.6827 7.44434 14.1951 7.73207 14.6172L8.97155 13.7724C8.90747 13.6784 8.83227 13.4862 8.79121 13.0092C8.75066 12.538 8.75 11.9068 8.75 11H7.25ZM9.73306 14.2481C9.44154 14.2155 9.16131 14.0508 8.97155 13.7724L7.73207 14.6172C8.15604 15.2392 8.81914 15.6551 9.56605 15.7388L9.73306 14.2481ZM12.8141 14.3596C13.5268 13.921 14.1069 13.5649 14.5349 13.2426C14.9627 12.9204 15.3337 12.5645 15.5328 12.0877L14.1487 11.5096C14.1044 11.6157 13.9909 11.7745 13.6325 12.0444C13.2742 12.3142 12.7662 12.6278 12.028 13.0821L12.8141 14.3596ZM12.028 8.91788C12.7662 9.37221 13.2742 9.68578 13.6325 9.95561C13.9909 10.2255 14.1044 10.3843 14.1487 10.4904L15.5328 9.91227C15.3337 9.43552 14.9627 9.07963 14.5349 8.7574C14.1069 8.43507 13.5268 8.07898 12.8141 7.64042L12.028 8.91788ZM15.5328 12.0877C15.8224 11.3944 15.8224 10.6056 15.5328 9.91227L14.1487 10.4904C14.2838 10.8138 14.2838 11.1862 14.1487 11.5096L15.5328 12.0877Z" fill="#ADB5BD"/>
</svg>
