<svg width="24" height="29" viewBox="0 0 24 29" fill="none" xmlns="http://www.w3.org/2000/svg">
<path d="M17.6741 2.85034C16.477 1.70852 14.8539 1 13.0478 1H10.7172C6.68736 1 3.56942 4.53194 4.06926 8.53065L4.17787 9.39952C4.37788 10.9996 3.7934 12.5979 2.60833 13.6915C0.989626 15.1852 0.539904 17.5626 1.50118 19.5444L1.64263 19.836C2.55108 21.7088 4.44968 22.898 6.53123 22.898H17.7825C19.5662 22.898 21.2263 21.9868 22.184 20.4819C23.536 18.3577 23.1779 15.5711 21.3329 13.8576L21.2728 13.8018C20.9394 13.4922 20.6511 13.1449 20.4114 12.77M6.72511 22.898L7.27257 23.8365C9.7361 28.0597 14.6632 28.0597 17.1267 23.8365L17.6741 22.898" stroke="#31456A" stroke-width="2" stroke-linecap="round"/>
<path d="M21.78 7.84321C21.78 9.35496 20.5545 10.5805 19.0427 10.5805C17.531 10.5805 16.3055 9.35496 16.3055 7.84321C16.3055 6.33147 17.531 5.10596 19.0427 5.10596C20.5545 5.10596 21.78 6.33147 21.78 7.84321Z" fill="url(#paint0_linear_79_2974)"/>
<defs>
<linearGradient id="paint0_linear_79_2974" x1="16.3055" y1="5.10596" x2="20.523" y2="9.32148" gradientUnits="userSpaceOnUse">
<stop stop-color="#7C057B"/>
<stop offset="1" stop-color="#CD2791"/>
</linearGradient>
</defs>
</svg>
