<svg width="20" height="20" viewBox="0 0 20 20" fill="none" xmlns="http://www.w3.org/2000/svg">
<path d="M4.27711 0.301205C3.98795 0.578314 3.9759 0.650602 3.9759 2.28916V3.9759H2.28916C0.650602 3.9759 0.578313 3.98795 0.301205 4.27711L0 4.56627V12.0241V19.4819L0.277108 19.7349L0.554217 20H8H15.4337L15.7229 19.6988C16.012 19.4217 16.0241 19.3494 16.0241 17.7108V16.0241H17.7108C19.3494 16.0241 19.4217 16.012 19.6988 15.7229L20 15.4337V7.9759V0.518072L19.7229 0.26506L19.4458 0H12H4.56627L4.27711 0.301205ZM18.0482 7.9759L18.0723 13.9759H12.0482H6.0241V7.95181V1.92771L12.0241 1.95181L18.012 1.98795L18.0482 7.9759ZM3.9759 10.6867C3.98795 14.1687 4.0241 15.4096 4.13253 15.5542C4.48193 16 4.71084 16.0241 9.38554 16.0241H13.9759V17.0482V18.0723L7.98795 18.0482L1.98795 18.012L1.95181 12.012L1.92771 6.0241H2.95181H3.9759V10.6867Z" fill="#ADB5BD"/>
<path d="M9.33734 4.27712C9.15661 4.45784 9.03613 4.71086 9.03613 4.92772C9.03613 5.90363 9.34939 6.02411 11.9277 6.02411H13.9759V8.0723C13.9759 10.6506 14.0964 10.9639 15.0723 10.9639C15.2891 10.9639 15.5422 10.8434 15.7229 10.6627L16.0241 10.3735V7.59037C16.0241 4.7711 15.9879 4.45784 15.5542 4.13254C15.4096 4.02411 14.5542 3.98796 12.494 3.97592H9.62649L9.33734 4.27712Z" fill="#ADB5BD"/>
</svg>
