<svg width="54" height="54" viewBox="0 0 54 54" fill="none" xmlns="http://www.w3.org/2000/svg">
<path fill-rule="evenodd" clip-rule="evenodd" d="M39.6415 0.0209351H14.3569C5.54565 0.0209351 0.0214844 6.25968 0.0214844 15.0884V38.9118C0.0214844 47.7405 5.51648 53.9793 14.3569 53.9793H39.6386C48.479 53.9793 53.9798 47.7405 53.9798 38.9118V15.0884C53.9798 6.25968 48.479 0.0209351 39.6415 0.0209351Z" fill="#344ED1" fill-opacity="0.5"/>
<path d="M18.6401 36.2847L19.0884 35.3909L18.6401 36.2847ZM15.7266 33.4168L16.6147 32.9571L15.7266 33.4168ZM38.2734 33.4168L37.3853 32.9571L38.2734 33.4168ZM35.3599 36.2847L34.9116 35.3909L35.3599 36.2847ZM35.3599 16.7153L34.9116 17.6091L35.3599 16.7153ZM38.2734 19.5832L39.1615 19.1235L38.2734 19.5832ZM18.6401 16.7153L19.0884 17.6091L18.6401 16.7153ZM15.7266 19.5832L14.8385 19.1235L15.7266 19.5832ZM33.6667 34.0625C34.219 34.0625 34.6667 33.6148 34.6667 33.0625C34.6667 32.5102 34.219 32.0625 33.6667 32.0625V34.0625ZM28.3333 32.0625C27.781 32.0625 27.3333 32.5102 27.3333 33.0625C27.3333 33.6148 27.781 34.0625 28.3333 34.0625V32.0625ZM38.9853 23.875L39.9851 23.8556L38.9853 23.875ZM15.0147 23.875L14.0149 23.8556L15.0147 23.875ZM25.6667 17H28.3333V15H25.6667V17ZM28.3333 36H25.6667V38H28.3333V36ZM25.6667 36C23.7836 36 22.4305 35.9992 21.3682 35.9138C20.3171 35.8293 19.6384 35.6667 19.0884 35.3909L18.1917 37.1786C19.0678 37.618 20.0356 37.8131 21.2078 37.9074C22.3689 38.0008 23.8161 38 25.6667 38V36ZM14 26.5C14 28.3209 13.9992 29.7477 14.0943 30.893C14.1903 32.0504 14.3894 33.0088 14.8385 33.8765L16.6147 32.9571C16.3372 32.4211 16.173 31.7587 16.0874 30.7275C16.0008 29.6842 16 28.3544 16 26.5H14ZM19.0884 35.3909C18.0208 34.8554 17.1558 34.0025 16.6147 32.9571L14.8385 33.8765C15.5757 35.3007 16.7505 36.4557 18.1917 37.1786L19.0884 35.3909ZM38 26.5C38 28.3544 37.9992 29.6842 37.9126 30.7275C37.827 31.7587 37.6628 32.4211 37.3853 32.9571L39.1615 33.8765C39.6106 33.0088 39.8097 32.0504 39.9057 30.893C40.0008 29.7477 40 28.3209 40 26.5H38ZM28.3333 38C30.1839 38 31.6311 38.0008 32.7922 37.9074C33.9644 37.8131 34.9322 37.618 35.8083 37.1786L34.9116 35.3909C34.3616 35.6667 33.6829 35.8293 32.6318 35.9138C31.5695 35.9992 30.2164 36 28.3333 36V38ZM37.3853 32.9571C36.8442 34.0025 35.9792 34.8554 34.9116 35.3909L35.8083 37.1786C37.2495 36.4557 38.4243 35.3007 39.1615 33.8765L37.3853 32.9571ZM28.3333 17C30.2164 17 31.5695 17.0008 32.6318 17.0862C33.6829 17.1707 34.3616 17.3333 34.9116 17.6091L35.8083 15.8214C34.9322 15.382 33.9644 15.1869 32.7922 15.0926C31.6311 14.9992 30.1839 15 28.3333 15V17ZM34.9116 17.6091C35.9792 18.1446 36.8442 18.9975 37.3853 20.0429L39.1615 19.1235C38.4243 17.6993 37.2495 16.5443 35.8083 15.8214L34.9116 17.6091ZM25.6667 15C23.8161 15 22.3689 14.9992 21.2078 15.0926C20.0356 15.1869 19.0678 15.382 18.1917 15.8214L19.0884 17.6091C19.6384 17.3333 20.3171 17.1707 21.3682 17.0862C22.4305 17.0008 23.7836 17 25.6667 17V15ZM18.1917 15.8214C16.7505 16.5443 15.5757 17.6993 14.8385 19.1235L16.6147 20.0429C17.1558 18.9975 18.0208 18.1446 19.0884 17.6091L18.1917 15.8214ZM33.6667 32.0625H28.3333V34.0625H33.6667V32.0625ZM40 26.5C40 25.5008 40 24.6246 39.9851 23.8556L37.9855 23.8944C38 24.6401 38 25.4949 38 26.5H40ZM39.9851 23.8556C39.9459 21.8389 39.8081 20.3728 39.1615 19.1235L37.3853 20.0429C37.7956 20.8356 37.9461 21.8707 37.9855 23.8944L39.9851 23.8556ZM38.9853 22.875H15.0147V24.875H38.9853V22.875ZM16 26.5C16 25.4949 16 24.6401 16.0145 23.8944L14.0149 23.8556C14 24.6246 14 25.5008 14 26.5H16ZM16.0145 23.8944C16.0539 21.8707 16.2044 20.8356 16.6147 20.0429L14.8385 19.1235C14.1919 20.3728 14.0541 21.8389 14.0149 23.8556L16.0145 23.8944Z" fill="#344ED1"/>
</svg>
