<svg width="54" height="54" viewBox="0 0 54 54" fill="none" xmlns="http://www.w3.org/2000/svg">
<path fill-rule="evenodd" clip-rule="evenodd" d="M39.6415 0.0209351H14.3569C5.54565 0.0209351 0.0214844 6.25968 0.0214844 15.0884V38.9118C0.0214844 47.7405 5.51648 53.9793 14.3569 53.9793H39.6386C48.479 53.9793 53.9798 47.7405 53.9798 38.9118V15.0884C53.9798 6.25968 48.479 0.0209351 39.6415 0.0209351Z" fill="#D95F18" fill-opacity="0.5"/>
<path fill-rule="evenodd" clip-rule="evenodd" d="M22.0746 32.0942C15.803 32.0942 10 35.0755 10 38.8308C10 42.586 15.7682 41.961 22.0738 41.961C28.3455 41.961 33.7005 42.5844 33.7005 38.8308C33.7005 35.0771 28.3802 32.0942 22.0746 32.0942Z" fill="#D95F18"/>
<path d="M43.9857 38.9387C43.9857 41.9889 39.4545 41.4823 34.1477 41.4823C34.1477 41.4823 35.1452 39.408 35.2408 37.9923C35.3629 36.1845 34.1484 33.4646 34.1484 33.4646C39.4839 33.4646 43.9857 35.8884 43.9857 38.9387Z" fill="#D95F18"/>
<path fill-rule="evenodd" clip-rule="evenodd" d="M22.0747 26.7383C26.1904 26.7383 29.5262 23.4382 29.5262 19.3684C29.5262 15.2986 26.1904 12 22.0747 12C17.959 12 14.6216 15.2986 14.6216 19.3684C14.6077 23.4245 17.9219 26.7246 22.0222 26.7383H22.0747Z" fill="#D95F18"/>
<path fill-rule="evenodd" clip-rule="evenodd" d="M36.3843 28.0985C39.5948 28.0985 42.197 25.4951 42.197 22.2845C42.197 19.074 39.5948 16.4718 36.3843 16.4718C33.1737 16.4718 30.5703 19.074 30.5703 22.2845C30.5595 25.4842 33.1448 28.0876 36.3433 28.0985H36.3843Z" fill="#D95F18"/>
</svg>
