<svg width="21" height="21" viewBox="0 0 21 21" fill="none" xmlns="http://www.w3.org/2000/svg">
<path d="M3.17558 18.992L3.61642 18.3853L3.17558 18.992ZM2.00797 17.8244L1.4012 18.2653L2.00797 17.8244ZM18.992 17.8244L18.3853 17.3836L18.992 17.8244ZM17.8244 18.992L17.3836 18.3853L17.8244 18.992ZM17.8244 2.00797L17.3836 2.61473L17.8244 2.00797ZM18.992 3.17558L18.3853 3.61642L18.992 3.17558ZM3.17558 2.00797L3.61642 2.61473L3.17558 2.00797ZM2.00797 3.17558L2.61473 3.61642L2.00797 3.17558ZM2.28741 17.4252L1.61659 17.0898H1.61659L2.28741 17.4252ZM9.97222 13.6667L10.1962 12.9509L10.1583 12.939L10.1193 12.9312L9.97222 13.6667ZM7.5002 13.3004L7.51612 14.0502L7.5002 13.3004ZM3.51595 15.249L2.93385 14.7761L3.51595 15.249ZM10.1545 14.4809L9.50159 14.1119L10.1545 14.4809ZM6.68041 19.1032C6.47659 19.4638 6.60369 19.9213 6.96429 20.1251C7.32489 20.329 7.78244 20.2019 7.98626 19.8413L6.68041 19.1032ZM18.4279 11.6718L18.8621 11.0603L18.4279 11.6718ZM11.2766 12.6466L10.6946 12.1736L11.2766 12.6466ZM2.17148 17.657L2.81692 18.039L2.83043 18.0162L2.8423 17.9924L2.17148 17.657ZM6.58333 7.33333C6.58333 8.91348 7.8643 10.1944 9.44444 10.1944V8.69444C8.69272 8.69444 8.08333 8.08505 8.08333 7.33333H6.58333ZM9.44444 10.1944C11.0246 10.1944 12.3056 8.91348 12.3056 7.33333H10.8056C10.8056 8.08505 10.1962 8.69444 9.44444 8.69444V10.1944ZM12.3056 7.33333C12.3056 5.75319 11.0246 4.47222 9.44444 4.47222V5.97222C10.1962 5.97222 10.8056 6.58161 10.8056 7.33333H12.3056ZM9.44444 4.47222C7.8643 4.47222 6.58333 5.75319 6.58333 7.33333H8.08333C8.08333 6.58161 8.69272 5.97222 9.44444 5.97222V4.47222ZM10.5 19.25C8.50427 19.25 7.06771 19.249 5.95456 19.1284C4.85544 19.0093 4.16093 18.7809 3.61642 18.3853L2.73474 19.5988C3.57757 20.2112 4.56625 20.4867 5.79299 20.6196C7.0057 20.751 8.53768 20.75 10.5 20.75V19.25ZM0.25 10.5C0.25 12.4623 0.248971 13.9943 0.380359 15.207C0.513269 16.4338 0.788849 17.4224 1.4012 18.2653L2.61473 17.3836C2.21912 16.8391 1.99071 16.1446 1.87163 15.0454C1.75103 13.9323 1.75 12.4957 1.75 10.5H0.25ZM10.5 20.75C12.4623 20.75 13.9943 20.751 15.207 20.6196C16.4338 20.4867 17.4224 20.2112 18.2653 19.5988L17.3836 18.3853C16.8391 18.7809 16.1446 19.0093 15.0454 19.1284C13.9323 19.249 12.4957 19.25 10.5 19.25V20.75ZM18.3853 17.3836C18.106 17.768 17.768 18.106 17.3836 18.3853L18.2653 19.5988C18.777 19.227 19.227 18.777 19.5988 18.2653L18.3853 17.3836ZM10.5 1.75C12.4957 1.75 13.9323 1.75103 15.0454 1.87163C16.1446 1.99071 16.8391 2.21912 17.3836 2.61473L18.2653 1.4012C17.4224 0.788849 16.4338 0.513269 15.207 0.380359C13.9943 0.248971 12.4623 0.25 10.5 0.25V1.75ZM20.75 10.5C20.75 8.53768 20.751 7.0057 20.6196 5.79299C20.4867 4.56625 20.2112 3.57757 19.5988 2.73474L18.3853 3.61642C18.7809 4.16093 19.0093 4.85544 19.1284 5.95456C19.249 7.06771 19.25 8.50427 19.25 10.5H20.75ZM17.3836 2.61473C17.768 2.894 18.106 3.23203 18.3853 3.61642L19.5988 2.73474C19.227 2.22301 18.777 1.77299 18.2653 1.4012L17.3836 2.61473ZM10.5 0.25C8.53768 0.25 7.0057 0.248971 5.79299 0.380359C4.56625 0.513269 3.57757 0.788849 2.73474 1.4012L3.61642 2.61473C4.16093 2.21912 4.85544 1.99071 5.95456 1.87163C7.06771 1.75103 8.50427 1.75 10.5 1.75V0.25ZM1.75 10.5C1.75 8.50427 1.75103 7.06771 1.87163 5.95456C1.99071 4.85544 2.21912 4.16093 2.61473 3.61642L1.4012 2.73474C0.788849 3.57757 0.513269 4.56625 0.380359 5.79299C0.248971 7.0057 0.25 8.53768 0.25 10.5H1.75ZM2.73474 1.4012C2.22301 1.77299 1.77299 2.22301 1.4012 2.73474L2.61473 3.61642C2.894 3.23203 3.23203 2.894 3.61642 2.61473L2.73474 1.4012ZM10.1193 12.9312C8.89363 12.6861 8.16574 12.5361 7.48428 12.5506L7.51612 14.0502C7.99288 14.0401 8.52694 14.1425 9.82514 14.4021L10.1193 12.9312ZM2.95823 17.7606C3.5503 16.5765 3.79737 16.092 4.09806 15.7219L2.93385 14.7761C2.50405 15.3051 2.17558 15.9718 1.61659 17.0898L2.95823 17.7606ZM7.48428 12.5506C5.71424 12.5881 4.05022 13.402 2.93385 14.7761L4.09806 15.7219C4.93662 14.6898 6.18655 14.0784 7.51612 14.0502L7.48428 12.5506ZM9.50159 14.1119L6.68041 19.1032L7.98626 19.8413L10.8074 14.85L9.50159 14.1119ZM18.8621 11.0603C16.2716 9.22102 12.6983 9.70809 10.6946 12.1736L11.8587 13.1196C13.3637 11.2676 16.0478 10.9018 17.9937 12.2834L18.8621 11.0603ZM10.8074 14.85C10.9446 14.6073 11.0638 14.3963 11.1703 14.2102L9.86813 13.4656C9.75944 13.6557 9.63823 13.8701 9.50159 14.1119L10.8074 14.85ZM11.1703 14.2102C11.5073 13.6208 11.6912 13.3257 11.8587 13.1196L10.6946 12.1736C10.4383 12.4889 10.198 12.8887 9.86813 13.4656L11.1703 14.2102ZM9.7482 14.3824L10.2952 14.5536L10.7432 13.1221L10.1962 12.9509L9.7482 14.3824ZM20.5145 12.5927C19.742 11.8202 19.2869 11.3619 18.8621 11.0603L17.9937 12.2834C18.2887 12.4928 18.6343 12.8339 19.4538 13.6534L20.5145 12.5927ZM19.25 10.5C19.25 11.4935 19.25 12.3521 19.2343 13.1075L20.734 13.1386C20.75 12.3645 20.75 11.4889 20.75 10.5H19.25ZM19.2343 13.1075C19.1866 15.4112 18.9867 16.5558 18.3853 17.3836L19.5988 18.2653C20.5084 17.0132 20.6869 15.4131 20.734 13.1386L19.2343 13.1075ZM1.61659 17.0898L1.50066 17.3216L2.8423 17.9924L2.95823 17.7606L1.61659 17.0898ZM3.61642 18.3853C3.24598 18.1161 2.9186 17.7924 2.64537 17.4252L1.44199 18.3207C1.80574 18.8095 2.24158 19.2405 2.73474 19.5988L3.61642 18.3853ZM2.64537 17.4252C2.63508 17.4114 2.62487 17.3975 2.61473 17.3836L1.4012 18.2653C1.41469 18.2838 1.42829 18.3023 1.44199 18.3207L2.64537 17.4252ZM1.52604 17.2751L1.39824 17.491L2.68912 18.255L2.81692 18.039L1.52604 17.2751Z" fill="white"/>
</svg>
