<svg width="19" height="21" viewBox="0 0 19 21" fill="none" xmlns="http://www.w3.org/2000/svg">
<path d="M8.87182 1.87493C10.7548 1.28121 11.6963 0.984347 12.5166 1.00064C14.2319 1.0347 15.8099 1.94576 16.697 3.41418C17.1213 4.11646 17.3349 5.08025 17.7623 7.00783C17.9282 7.75645 18.0112 8.13076 18.0371 8.50123C18.0908 9.26813 17.9669 10.0371 17.6751 10.7483C17.5341 11.0919 17.3378 11.4212 16.9451 12.0798L14.4869 16.2027C13.5956 17.6976 13.1499 18.4451 12.6006 18.9449C11.3849 20.0511 9.70312 20.4891 8.10226 20.1165C7.37889 19.9481 6.62522 19.513 5.11788 18.6427C3.61054 17.7725 2.85687 17.3373 2.34938 16.7951C1.22628 15.595 0.764722 13.9196 1.1148 12.3136C1.27299 11.588 1.6975 10.8283 2.54651 9.30885L4.88793 5.11862C5.26197 4.44924 5.44899 4.11455 5.67605 3.82067C6.14608 3.21233 6.75007 2.72056 7.44106 2.3836C7.77486 2.22082 8.14052 2.10552 8.87182 1.87493Z" stroke="#ADB5BD" stroke-width="1.5"/>
<path d="M9.90625 6.58122C9.423 7.41823 9.70979 8.48852 10.5468 8.97177C11.3838 9.45502 12.4541 9.16823 12.9373 8.33122C13.4206 7.49421 13.1338 6.42393 12.2968 5.94068C11.4598 5.45743 10.3895 5.74421 9.90625 6.58122Z" stroke="#ADB5BD" stroke-width="1.5"/>
</svg>
