<svg width="24" height="24" viewBox="0 0 24 24" fill="none" xmlns="http://www.w3.org/2000/svg">
<path d="M4.36619 16.5496L5.041 16.2223L4.36619 16.5496ZM5.17514 12.2731L5.68376 12.8243H5.68376L5.17514 12.2731ZM6.32194 9.13719L5.57773 9.23021V9.23021L6.32194 9.13719ZM18.8564 12.3945L19.3668 11.845L19.3668 11.845L18.8564 12.3945ZM19.4783 17.2347L18.8456 16.832L19.4783 17.2347ZM17.6015 9.02598L18.3458 9.11901V9.11901L17.6015 9.02598ZM18.8125 12.3538L18.3021 12.9033L18.3021 12.9033L18.8125 12.3538ZM4.46954 16.7627L3.79474 17.09H3.79474L4.46954 16.7627ZM17.6662 8.50905L16.922 8.41603V8.41603L17.6662 8.50905ZM6.24258 8.50234L6.98679 8.40931V8.40931L6.24258 8.50234ZM8.58336 19.6857L7.93553 20.0636H7.93553L8.58336 19.6857ZM8.8312 18.6221C8.62249 18.2643 8.16325 18.1435 7.80546 18.3522C7.44767 18.5609 7.32682 19.0201 7.53553 19.3779L8.8312 18.6221ZM16.8312 19.3779C17.0399 19.0201 16.9191 18.5609 16.5613 18.3522C16.2035 18.1435 15.7442 18.2643 15.5355 18.6221L16.8312 19.3779ZM15.7834 19.6857L16.4312 20.0636H16.4312L15.7834 19.6857ZM11.0999 3.75H12.8029V2.25H11.0999V3.75ZM16.2623 18.25H8.04144V19.75H16.2623V18.25ZM16.922 8.41603L16.8573 8.93296L18.3458 9.11901L18.4104 8.60208L16.922 8.41603ZM18.3021 12.9033L18.346 12.9441L19.3668 11.845L19.3229 11.8042L18.3021 12.9033ZM7.06615 9.04416L6.98679 8.40931L5.49838 8.59536L5.57773 9.23021L7.06615 9.04416ZM5.14435 16.4353L5.041 16.2223L3.69139 16.8769L3.79474 17.09L5.14435 16.4353ZM5.041 16.2223C4.48292 15.0718 4.74401 13.6915 5.68376 12.8243L4.66651 11.7219C3.24083 13.0375 2.84474 15.1315 3.69139 16.8769L5.041 16.2223ZM5.57773 9.23021C5.69385 10.1592 5.35452 11.0871 4.66651 11.7219L5.68376 12.8243C6.72753 11.8611 7.24231 10.4535 7.06615 9.04416L5.57773 9.23021ZM18.346 12.9441C19.4289 13.9497 19.639 15.5852 18.8456 16.832L20.111 17.6373C21.2932 15.7799 20.9801 13.3432 19.3668 11.845L18.346 12.9441ZM16.8573 8.93296C16.6725 10.4117 17.2101 11.8892 18.3021 12.9033L19.3229 11.8042C18.5843 11.1183 18.2207 10.1191 18.3458 9.11901L16.8573 8.93296ZM8.04144 18.25C6.80787 18.25 5.68272 17.5452 5.14435 16.4353L3.79474 17.09C4.58391 18.7169 6.23321 19.75 8.04144 19.75V18.25ZM16.2623 19.75C17.822 19.75 19.2736 18.9532 20.111 17.6373L18.8456 16.832C18.2835 17.7152 17.3091 18.25 16.2623 18.25V19.75ZM12.8029 3.75C15.2998 3.75 17.2317 5.93841 16.922 8.41603L18.4104 8.60208C18.832 5.22918 16.202 2.25 12.8029 2.25V3.75ZM11.0999 2.25C7.70439 2.25 5.07721 5.22603 5.49838 8.59536L6.98679 8.40931C6.67754 5.93526 8.60664 3.75 11.0999 3.75V2.25ZM9.2312 19.3078L8.8312 18.6221L7.53553 19.3779L7.93553 20.0636L9.2312 19.3078ZM15.5355 18.6221L15.1355 19.3078L16.4312 20.0636L16.8312 19.3779L15.5355 18.6221ZM7.93553 20.0636C8.94833 21.7998 10.5263 22.75 12.1834 22.75C13.8404 22.75 15.4184 21.7998 16.4312 20.0636L15.1355 19.3078C14.3483 20.6573 13.2263 21.25 12.1834 21.25C11.1404 21.25 10.0184 20.6573 9.2312 19.3078L7.93553 20.0636Z" fill="#ADB5BD"/>
</svg>
