<svg width="20" height="20" viewBox="0 0 20 20" fill="none" xmlns="http://www.w3.org/2000/svg">
<path d="M16.1018 15.0412C15.809 14.7483 15.3341 14.7483 15.0412 15.0412C14.7483 15.3341 14.7483 15.809 15.0412 16.1019L16.1018 15.0412ZM18.4697 19.5304C18.7626 19.8233 19.2374 19.8233 19.5303 19.5304C19.8232 19.2375 19.8232 18.7626 19.5303 18.4697L18.4697 19.5304ZM7.30402 4.36496C7.71313 4.30016 7.99225 3.91598 7.92746 3.50687C7.86266 3.09775 7.47848 2.81863 7.06937 2.88343L7.30402 4.36496ZM2.8834 7.06939C2.8186 7.47851 3.09773 7.86269 3.50684 7.92748C3.91596 7.99228 4.30014 7.71316 4.36493 7.30404L2.8834 7.06939ZM15.0412 16.1019L18.4697 19.5304L19.5303 18.4697L16.1018 15.0412L15.0412 16.1019ZM8.7143 15.6786C4.86802 15.6786 1.75 12.5606 1.75 8.7143H0.25C0.25 13.389 4.0396 17.1786 8.7143 17.1786V15.6786ZM15.6786 8.7143C15.6786 12.5606 12.5606 15.6786 8.7143 15.6786V17.1786C13.389 17.1786 17.1786 13.389 17.1786 8.7143H15.6786ZM8.7143 1.75C12.5606 1.75 15.6786 4.86802 15.6786 8.7143H17.1786C17.1786 4.0396 13.389 0.25 8.7143 0.25V1.75ZM8.7143 0.25C4.0396 0.25 0.25 4.0396 0.25 8.7143H1.75C1.75 4.86802 4.86802 1.75 8.7143 1.75V0.25ZM7.06937 2.88343C4.91462 3.22471 3.22468 4.91464 2.8834 7.06939L4.36493 7.30404C4.60456 5.79113 5.79111 4.60458 7.30402 4.36496L7.06937 2.88343Z" fill="#ADB5BD"/>
</svg>
