<svg width="19" height="19" viewBox="0 0 19 19" fill="none" xmlns="http://www.w3.org/2000/svg">
<path d="M0.948073 0.063303C0.684613 0.141237 0.417335 0.334215 0.256969 0.564306C-0.0217642 0.957687 -0.00649118 0.34535 0.00496358 8.95148L0.0164184 16.6855L0.134784 16.9267C0.321879 17.3015 0.573884 17.5205 0.955709 17.6355C1.17335 17.7023 1.33754 17.7061 3.83849 17.7061H6.48836V17.1123V16.5185H3.85377H1.21917V8.85499V1.19149H8.5884H15.9576V4.06762V6.94375H16.5686H17.1833L17.1718 3.98226C17.1604 1.11727 17.1566 1.02078 17.084 0.850063C16.9007 0.438128 16.6106 0.174637 16.2096 0.0595913C15.9271 -0.0220528 1.21535 -0.018343 0.948073 0.063303Z" fill="#ADB5BD"/>
<path d="M3.39551 3.90036V4.49414H8.2256H13.0557V3.90036V3.30658H8.2256H3.39551V3.90036Z" fill="#ADB5BD"/>
<path d="M3.39551 7.20309V7.79688H6.85103H10.3066V7.20309V6.60931H6.85103H3.39551V7.20309Z" fill="#ADB5BD"/>
<path d="M12.502 7.94558C11.7269 8.10887 11.0854 8.44658 10.5318 8.98098C9.46268 10.0238 9.10759 11.5565 9.62305 12.9333L9.74142 13.2525L8.64939 15.1786C7.91247 16.4812 7.55737 17.1381 7.55737 17.2123C7.55737 17.3236 7.63374 17.4164 7.7521 17.4572C7.78647 17.4684 8.25611 17.3793 8.79831 17.2605C9.46268 17.1158 9.78342 17.0601 9.79487 17.0898C9.80251 17.1121 9.9476 17.5129 10.1194 17.9842C10.2912 18.4518 10.4554 18.8637 10.486 18.9009C10.5623 18.9862 10.6616 19.0011 10.7876 18.9491C10.8831 18.9083 11.0473 18.6337 11.8644 17.164L12.8266 15.4235L13.258 15.4347C13.4909 15.4421 13.6971 15.4606 13.7086 15.4718C13.7239 15.4866 14.1515 16.2474 14.6593 17.1678C15.1672 18.0844 15.6253 18.8749 15.6788 18.9194C15.7895 19.0196 15.9194 19.027 16.0263 18.938C16.0759 18.9009 16.2325 18.5297 16.4348 17.9731C16.6181 17.4795 16.7785 17.075 16.7937 17.075C16.8052 17.0787 17.2443 17.1752 17.7712 17.2939C18.7869 17.5277 18.8403 17.5314 18.9587 17.357C19.0045 17.2828 19.0121 17.2383 18.9816 17.1603C18.9625 17.101 18.4699 16.1991 17.8934 15.1526L16.8434 13.2451L16.9503 12.9556C17.1412 12.4509 17.1908 12.1169 17.1679 11.512C17.1527 11.0741 17.1297 10.9071 17.0496 10.6436C16.8396 9.94959 16.5379 9.46343 16.0186 8.96614C15.5032 8.46514 14.9686 8.16824 14.2584 7.98269C13.8079 7.86393 12.9678 7.84538 12.502 7.94558ZM14.1286 9.23334C14.9495 9.50797 15.5452 10.124 15.8086 10.9516C15.9232 11.3079 15.9308 11.9239 15.8315 12.2876C15.5795 13.1894 14.8617 13.8834 13.93 14.132C13.5444 14.236 12.8915 14.2174 12.502 14.0949C12.0782 13.9576 11.7498 13.7609 11.4329 13.4566C11.1198 13.1523 10.9174 12.8331 10.7762 12.4175C10.6845 12.1577 10.6731 12.0612 10.6731 11.6382C10.6731 11.2077 10.6845 11.1223 10.78 10.8588C11.074 10.0238 11.7689 9.39292 12.6357 9.17025C13.0709 9.05521 13.6895 9.08118 14.1286 9.23334ZM10.7303 14.4141C10.8525 14.5217 11.1084 14.6998 11.2993 14.8112C11.4864 14.9188 11.6429 15.0153 11.6429 15.0264C11.6429 15.0598 10.6693 16.7781 10.6502 16.7781C10.6387 16.7781 10.5662 16.5925 10.486 16.3699C10.3142 15.8948 10.3638 15.9208 9.79105 16.0507C9.58105 16.0989 9.40541 16.1323 9.39777 16.1286C9.38632 16.1212 10.4745 14.2174 10.4898 14.2174C10.4974 14.2174 10.6043 14.3065 10.7303 14.4141ZM16.6945 15.2639C17.0228 15.8429 17.3016 16.3402 17.313 16.3736C17.3321 16.4218 17.2596 16.4144 16.8396 16.3216C16.5646 16.2622 16.3203 16.2214 16.2935 16.2325C16.263 16.24 16.1675 16.4589 16.0721 16.7187C15.9804 16.9748 15.8888 17.1715 15.8735 17.1566C15.7895 17.075 14.7319 15.1266 14.7662 15.1155C14.9724 15.0487 15.7284 14.5403 15.9346 14.3324C15.9995 14.2694 16.0606 14.2174 16.0759 14.2174C16.0912 14.2174 16.3699 14.6887 16.6945 15.2639Z" fill="#ADB5BD"/>
<path d="M3.39551 10.5063V11.1001H5.76283H8.13015V10.5063V9.91253H5.76283H3.39551V10.5063Z" fill="#ADB5BD"/>
<path d="M3.39551 13.809V14.4028H5.76283H8.13015V13.809V13.2153H5.76283H3.39551V13.809Z" fill="#ADB5BD"/>
</svg>
