<svg width="16" height="21" viewBox="0 0 16 21" fill="none" xmlns="http://www.w3.org/2000/svg">
<path fill-rule="evenodd" clip-rule="evenodd" d="M8 0C5.29202 0 3.09677 2.17852 3.09677 4.86585C3.09677 7.55319 5.29202 9.73171 8 9.73171C10.708 9.73171 12.9032 7.55319 12.9032 4.86585C12.9032 2.17852 10.708 0 8 0ZM4.64516 4.86585C4.64516 3.02715 6.14717 1.53659 8 1.53659C9.85283 1.53659 11.3548 3.02715 11.3548 4.86585C11.3548 6.70456 9.85283 8.19512 8 8.19512C6.14717 8.19512 4.64516 6.70456 4.64516 4.86585Z" fill="#ADB5BD"/>
<path fill-rule="evenodd" clip-rule="evenodd" d="M4.90323 11.2683C2.19525 11.2683 0 13.4468 0 16.1341C0 18.8215 2.19525 21 4.90323 21H11.0968C13.8048 21 16 18.8215 16 16.1341C16 13.4468 13.8048 11.2683 11.0968 11.2683H4.90323ZM1.54839 16.1341C1.54839 14.2954 3.0504 12.8049 4.90323 12.8049H11.0968C12.9496 12.8049 14.4516 14.2954 14.4516 16.1341C14.4516 17.9729 12.9496 19.4634 11.0968 19.4634H4.90323C3.0504 19.4634 1.54839 17.9729 1.54839 16.1341Z" fill="#ADB5BD"/>
</svg>
