<svg width="54" height="54" viewBox="0 0 54 54" fill="none" xmlns="http://www.w3.org/2000/svg">
<path fill-rule="evenodd" clip-rule="evenodd" d="M39.6415 0.0209351H14.3569C5.54565 0.0209351 0.0214844 6.25968 0.0214844 15.0884V38.9118C0.0214844 47.7405 5.51648 53.9793 14.3569 53.9793H39.6386C48.479 53.9793 53.9798 47.7405 53.9798 38.9118V15.0884C53.9798 6.25968 48.479 0.0209351 39.6415 0.0209351Z" fill="#AD2D1E" fill-opacity="0.5"/>
<path d="M17.6336 36.7798L18.2214 35.9708L17.6336 36.7798ZM16.2202 35.3664L15.4112 35.9542L16.2202 35.3664ZM36.7798 35.3664L35.9708 34.7786L36.7798 35.3664ZM35.3664 36.7798L34.7786 35.9708L35.3664 36.7798ZM35.3664 16.2202L34.7786 17.0292L35.3664 16.2202ZM36.7798 17.6336L35.9708 18.2214L36.7798 17.6336ZM17.6336 16.2202L18.2214 17.0292L17.6336 16.2202ZM16.2202 17.6336L17.0292 18.2214L16.2202 17.6336ZM16.5584 34.8831L15.664 34.4359H15.664L16.5584 34.8831ZM25.8611 30.3333L26.1598 29.379L26.1092 29.3631L26.0572 29.3528L25.8611 30.3333ZM22.8687 29.8899L22.8899 30.8897L22.8687 29.8899ZM18.0456 32.2488L17.2695 31.6182H17.2695L18.0456 32.2488ZM26.0818 31.319L25.2112 30.8269L26.0818 31.319ZM21.7961 36.8691C21.5243 37.3499 21.6938 37.9599 22.1746 38.2317C22.6554 38.5034 23.2655 38.334 23.5372 37.8532L21.7961 36.8691ZM36.0969 27.9185L36.6758 27.1031L36.0969 27.9185ZM27.4401 29.0985L26.6641 28.4678L27.4401 29.0985ZM16.4181 35.1638L17.2787 35.6731L17.2967 35.6426L17.3125 35.611L16.4181 35.1638ZM21.6667 22.6667C21.6667 24.6303 23.2585 26.2222 25.2222 26.2222V24.2222C24.3631 24.2222 23.6667 23.5258 23.6667 22.6667H21.6667ZM25.2222 26.2222C27.1859 26.2222 28.7778 24.6303 28.7778 22.6667H26.7778C26.7778 23.5258 26.0813 24.2222 25.2222 24.2222V26.2222ZM28.7778 22.6667C28.7778 20.703 27.1859 19.1111 25.2222 19.1111V21.1111C26.0813 21.1111 26.7778 21.8076 26.7778 22.6667H28.7778ZM25.2222 19.1111C23.2585 19.1111 21.6667 20.703 21.6667 22.6667H23.6667C23.6667 21.8076 24.3631 21.1111 25.2222 21.1111V19.1111ZM26.5 37C24.0821 37 22.3489 36.9986 21.0075 36.8533C19.6849 36.71 18.8622 36.4364 18.2214 35.9708L17.0458 37.5889C18.0844 38.3434 19.2993 38.6799 20.7921 38.8417C22.2662 39.0014 24.1266 39 26.5 39V37ZM14 26.5C14 28.8734 13.9986 30.7338 14.1583 32.2079C14.3201 33.7007 14.6566 34.9156 15.4112 35.9542L17.0292 34.7786C16.5636 34.1378 16.29 33.3151 16.1467 31.9925C16.0014 30.6511 16 28.9179 16 26.5H14ZM26.5 39C28.8734 39 30.7338 39.0014 32.2079 38.8417C33.7007 38.6799 34.9156 38.3434 35.9542 37.5889L34.7786 35.9708C34.1378 36.4364 33.3151 36.71 31.9925 36.8533C30.6511 36.9986 28.9179 37 26.5 37V39ZM35.9708 34.7786C35.6384 35.2361 35.2361 35.6384 34.7786 35.9708L35.9542 37.5889C36.5815 37.1331 37.1331 36.5815 37.5889 35.9542L35.9708 34.7786ZM26.5 16C28.9179 16 30.6511 16.0014 31.9925 16.1467C33.3151 16.29 34.1378 16.5636 34.7786 17.0292L35.9542 15.4112C34.9156 14.6566 33.7007 14.3201 32.2079 14.1583C30.7338 13.9986 28.8734 14 26.5 14V16ZM39 26.5C39 24.1266 39.0014 22.2662 38.8417 20.7921C38.6799 19.2993 38.3434 18.0844 37.5889 17.0458L35.9708 18.2214C36.4364 18.8622 36.71 19.6849 36.8533 21.0075C36.9986 22.3489 37 24.0821 37 26.5H39ZM34.7786 17.0292C35.2361 17.3616 35.6384 17.7639 35.9708 18.2214L37.5889 17.0458C37.1331 16.4185 36.5815 15.8669 35.9542 15.4112L34.7786 17.0292ZM26.5 14C24.1266 14 22.2662 13.9986 20.7921 14.1583C19.2993 14.3201 18.0844 14.6566 17.0458 15.4112L18.2214 17.0292C18.8622 16.5636 19.6849 16.29 21.0075 16.1467C22.3489 16.0014 24.0821 16 26.5 16V14ZM16 26.5C16 24.0821 16.0014 22.3489 16.1467 21.0075C16.29 19.6849 16.5636 18.8622 17.0292 18.2214L15.4112 17.0458C14.6566 18.0844 14.3201 19.2993 14.1583 20.7921C13.9986 22.2662 14 24.1266 14 26.5H16ZM17.0458 15.4112C16.4185 15.8669 15.8669 16.4185 15.4112 17.0458L17.0292 18.2214C17.3616 17.7639 17.7639 17.3616 18.2214 17.0292L17.0458 15.4112ZM26.0572 29.3528C24.578 29.0569 23.6849 28.8724 22.8474 28.8902L22.8899 30.8897C23.4545 30.8777 24.089 30.9987 25.665 31.3139L26.0572 29.3528ZM17.4529 35.3303C18.1716 33.8928 18.4657 33.3176 18.8218 32.8794L17.2695 31.6182C16.7413 32.2684 16.3387 33.0866 15.664 34.4359L17.4529 35.3303ZM22.8474 28.8902C20.6777 28.9362 18.6379 29.9339 17.2695 31.6182L18.8218 32.8794C19.8198 31.6509 21.3075 30.9233 22.8899 30.8897L22.8474 28.8902ZM25.2112 30.8269L21.7961 36.8691L23.5372 37.8532L26.9523 31.8111L25.2112 30.8269ZM36.6758 27.1031C33.5004 24.8486 29.1202 25.4456 26.6641 28.4678L28.2162 29.7292C30.0075 27.525 33.2021 27.0896 35.518 28.7339L36.6758 27.1031ZM26.9523 31.8111C27.1184 31.5172 27.2626 31.2621 27.3914 31.037L25.6551 30.0442C25.5234 30.2745 25.3766 30.5343 25.2112 30.8269L26.9523 31.8111ZM27.3914 31.037C27.7998 30.3227 28.0189 29.972 28.2162 29.7292L26.6641 28.4678C26.3484 28.8562 26.054 29.3466 25.6551 30.0442L27.3914 31.037ZM25.5624 31.2877L26.2246 31.4949L26.8219 29.5862L26.1598 29.379L25.5624 31.2877ZM38.6879 28.9682C37.7557 28.0359 37.198 27.4739 36.6758 27.1031L35.518 28.7339C35.8671 28.9818 36.2788 29.3875 37.2737 30.3824L38.6879 28.9682ZM37 26.5C37 27.7029 37 28.7413 36.9811 29.6546L38.9806 29.696C39 28.7577 39 27.6968 39 26.5H37ZM36.9811 29.6546C36.9233 32.445 36.6799 33.8026 35.9708 34.7786L37.5889 35.9542C38.7089 34.4125 38.9237 32.4476 38.9806 29.696L36.9811 29.6546ZM15.664 34.4359L15.5237 34.7166L17.3125 35.611L17.4529 35.3303L15.664 34.4359ZM18.2214 35.9708C17.7805 35.6505 17.3908 35.2652 17.0656 34.8282L15.4611 36.0222C15.907 36.6214 16.4413 37.1496 17.0458 37.5889L18.2214 35.9708ZM17.0656 34.8282C17.0534 34.8118 17.0413 34.7952 17.0292 34.7786L15.4112 35.9542C15.4277 35.977 15.4444 35.9996 15.4611 36.0222L17.0656 34.8282ZM15.5575 34.6545L15.4028 34.9159L17.124 35.9345L17.2787 35.6731L15.5575 34.6545Z" fill="#AD2D1E"/>
</svg>
