<svg width="70" height="70" viewBox="0 0 70 70" fill="none" xmlns="http://www.w3.org/2000/svg">
<path fill-rule="evenodd" clip-rule="evenodd" d="M47.6414 8.02094H22.3568C13.5455 8.02094 8.02136 14.2597 8.02136 23.0884V46.9118C8.02136 55.7405 13.5164 61.9793 22.3568 61.9793H47.6384C56.4789 61.9793 61.9797 55.7405 61.9797 46.9118V23.0884C61.9797 14.2597 56.4789 8.02094 47.6414 8.02094Z" fill="#079AA2" fill-opacity="0.5"/>
<path fill-rule="evenodd" clip-rule="evenodd" d="M35.0746 40.0942C28.803 40.0942 23 43.0755 23 46.8307C23 50.586 28.7682 49.961 35.0738 49.961C41.3454 49.961 46.7005 50.5844 46.7005 46.8307C46.7005 43.0771 41.3802 40.0942 35.0746 40.0942Z" fill="#068B92"/>
<path fill-rule="evenodd" clip-rule="evenodd" d="M35.0747 34.7383C39.1904 34.7383 42.5262 31.4382 42.5262 27.3684C42.5262 23.2986 39.1904 20 35.0747 20C30.959 20 27.6216 23.2986 27.6216 27.3684C27.6077 31.4245 30.9219 34.7246 35.0222 34.7383H35.0747Z" fill="#068B92"/>
</svg>
